<svg width="100" height="74" viewBox="0 0 100 74" fill="none" xmlns="http://www.w3.org/2000/svg">
<g clip-path="url(#clip0_724_4377)">
<path d="M23.7 73.8999C10.6 73.8999 0 63.1999 0 50.0999C0 36.9999 10.6 26.3999 23.7 26.3999C36.8 26.3999 47.4 36.9999 47.4 50.0999C47.4 63.1999 36.8 73.8999 23.7 73.8999ZM23.7 28.3999C11.7 28.3999 1.9 38.1999 1.9 50.1999C1.9 62.1999 11.7 71.9999 23.7 71.9999C35.7 71.9999 45.5 62.1999 45.5 50.1999C45.5 38.1999 35.7 28.3999 23.7 28.3999Z" fill="#6A6A6A"/>
<path d="M23.7 68.6001C13.5 68.6001 5.2 60.3001 5.2 50.1001C5.2 39.9001 13.5 31.6001 23.7 31.6001C33.9 31.6001 42.2 39.9001 42.2 50.1001C42.2 60.3001 33.9 68.6001 23.7 68.6001ZM23.7 33.6001C14.6 33.6001 7.1 41.0001 7.1 50.2001C7.1 59.4001 14.5 66.8001 23.7 66.8001C32.9 66.8001 40.3 59.4001 40.3 50.2001C40.3 41.0001 32.8 33.6001 23.7 33.6001Z" fill="#6A6A6A"/>
<path d="M10.2 51.1001H6.2C5.7 51.1001 5.2 50.7001 5.2 50.1001C5.2 49.5001 5.6 49.1001 6.2 49.1001H10.2C10.7 49.1001 11.2 49.5001 11.2 50.1001C11.2 50.7001 10.7 51.1001 10.2 51.1001ZM41.2 51.1001H37.2C36.7 51.1001 36.2 50.7001 36.2 50.1001C36.2 49.5001 36.6 49.1001 37.2 49.1001H41.2C41.7 49.1001 42.2 49.5001 42.2 50.1001C42.2 50.7001 41.8 51.1001 41.2 51.1001ZM23.7 68.6001C23.2 68.6001 22.7 68.2001 22.7 67.6001V63.6001C22.7 63.1001 23.1 62.6001 23.7 62.6001C24.3 62.6001 24.7 63.0001 24.7 63.6001V67.6001C24.7 68.2001 24.2 68.6001 23.7 68.6001ZM23.7 37.6001C23.2 37.6001 22.7 37.2001 22.7 36.6001V32.6001C22.7 32.1001 23.1 31.6001 23.7 31.6001C24.3 31.6001 24.7 32.0001 24.7 32.6001V36.6001C24.7 37.2001 24.2 37.6001 23.7 37.6001ZM23.7 51.1001C23.6 51.1001 23.4 51.1001 23.3 51.0001L15.7 47.3001C15.2 47.1001 15 46.5001 15.3 46.0001C15.5 45.5001 16.1 45.3001 16.6 45.6001L24.2 49.3001C24.7 49.5001 24.9 50.1001 24.6 50.6001C24.4 50.9001 24.1 51.1001 23.7 51.1001Z" fill="#6A6A6A"/>
<path d="M23.7 51.1001C23.5 51.1001 23.3 51.0001 23.2 50.9001C22.8 50.6001 22.6 50.0001 22.9 49.6001L30.2 38.7001C30.5 38.3001 31.1 38.1001 31.5 38.4001C31.9 38.7001 32.1 39.3001 31.8 39.7001L24.5 50.6001C24.3 51.0001 24 51.1001 23.7 51.1001ZM28.4 28.4001C27.9 28.4001 27.4 28.0001 27.4 27.4001V13.6001C27.4 9.8001 30.5 6.7001 34.4 6.7001H43.7C44.2 6.7001 44.7 7.1001 44.7 7.7001C44.7 8.3001 44.3 8.7001 43.7 8.7001H34.4C31.6 8.7001 29.3 10.9001 29.3 13.7001V27.6001C29.4 28.0001 28.9 28.4001 28.4 28.4001ZM93 71.9001H33.3C32.8 71.9001 32.3 71.5001 32.3 70.9001C32.3 70.4001 32.7 69.9001 33.3 69.9001H93C95.8 69.9001 98.1 67.7001 98.1 64.9001V13.6001C98.1 10.9001 95.8 8.6001 93 8.6001H83.7C83.2 8.6001 82.7 8.2001 82.7 7.6001C82.7 7.0001 83.1 6.6001 83.7 6.6001H93C96.9 6.6001 100 9.7001 100 13.5001V65.0001C100 68.8001 96.9 71.9001 93 71.9001ZM79.6 8.6001H47.9C47.4 8.6001 46.9 8.2001 46.9 7.6001C46.9 7.0001 47.3 6.6001 47.9 6.6001H79.6C80.1 6.6001 80.6 7.0001 80.6 7.6001C80.6 8.2001 80.1 8.6001 79.6 8.6001Z" fill="#6A6A6A"/>
<path d="M99 22.6H28.4C27.9 22.6 27.4 22.2 27.4 21.6C27.4 21 27.8 20.6 28.4 20.6H99C99.5 20.6 100 21 100 21.6C100 22.2 99.6 22.6 99 22.6ZM45.8 15.3C44.1 15.3 42.8 13.9 42.8 12.3V3C42.8 1.3 44.2 0 45.8 0C47.4 0 48.8 1.4 48.8 3V12.3C48.8 14 47.5 15.3 45.8 15.3ZM45.8 1.9C45.2 1.9 44.7 2.4 44.7 3V12.3C44.7 12.9 45.2 13.4 45.8 13.4C46.4 13.4 46.9 12.9 46.9 12.3V3C46.9 2.4 46.4 1.9 45.8 1.9ZM81.6 15.3C79.9 15.3 78.6 13.9 78.6 12.3V3C78.6 1.3 80 0 81.6 0C83.3 0 84.6 1.4 84.6 3V12.3C84.6 14 83.3 15.3 81.6 15.3ZM81.6 1.9C81 1.9 80.5 2.4 80.5 3V12.3C80.5 12.9 81 13.4 81.6 13.4C82.2 13.4 82.7 12.9 82.7 12.3V3C82.7 2.4 82.2 1.9 81.6 1.9ZM60.4 45.1H51.6C50.5 45.1 49.6 44.2 49.6 43.1V39.8C49.6 38.7 50.5 37.8 51.6 37.8H60.4C61.5 37.8 62.4 38.7 62.4 39.8V43.1C62.4 44.2 61.5 45.1 60.4 45.1ZM75.9 45.1H67.1C66 45.1 65.1 44.2 65.1 43.1V39.8C65.1 38.7 66 37.8 67.1 37.8H75.9C77 37.8 77.9 38.7 77.9 39.8V43.1C77.9 44.2 77 45.1 75.9 45.1ZM91.4 45.1H82.6C81.5 45.1 80.6 44.2 80.6 43.1V39.8C80.6 38.7 81.5 37.8 82.6 37.8H91.4C92.5 37.8 93.4 38.7 93.4 39.8V43.1C93.4 44.2 92.5 45.1 91.4 45.1ZM75.9 35.5H67.1C66 35.5 65.1 34.6 65.1 33.5V30.2C65.1 29.1 66 28.2 67.1 28.2H75.9C77 28.2 77.9 29.1 77.9 30.2V33.5C77.9 34.6 77 35.5 75.9 35.5ZM91.4 35.5H82.6C81.5 35.5 80.6 34.6 80.6 33.5V30.2C80.6 29.1 81.5 28.2 82.6 28.2H91.4C92.5 28.2 93.4 29.1 93.4 30.2V33.5C93.4 34.6 92.5 35.5 91.4 35.5ZM60.4 54.8H51.6C50.5 54.8 49.6 53.9 49.6 52.8V49.5C49.6 48.4 50.5 47.5 51.6 47.5H60.4C61.5 47.5 62.4 48.4 62.4 49.5V52.8C62.4 53.9 61.5 54.8 60.4 54.8ZM75.9 54.8H67.1C66 54.8 65.1 53.9 65.1 52.8V49.5C65.1 48.4 66 47.5 67.1 47.5H75.9C77 47.5 77.9 48.4 77.9 49.5V52.8C77.9 53.9 77 54.8 75.9 54.8ZM91.4 54.8H82.6C81.5 54.8 80.6 53.9 80.6 52.8V49.5C80.6 48.4 81.5 47.5 82.6 47.5H91.4C92.5 47.5 93.4 48.4 93.4 49.5V52.8C93.4 53.9 92.5 54.8 91.4 54.8ZM60.4 64.4H51.6C50.5 64.4 49.6 63.5 49.6 62.4V59.1C49.6 58 50.5 57.1 51.6 57.1H60.4C61.5 57.1 62.4 58 62.4 59.1V62.4C62.4 63.5 61.5 64.4 60.4 64.4Z" fill="#6A6A6A"/>
</g>
<defs>
<clipPath id="clip0_724_4377">
<rect width="100" height="73.9" fill="white"/>
</clipPath>
</defs>
</svg>
