<svg width="21" height="22" viewBox="0 0 21 22" fill="none" xmlns="http://www.w3.org/2000/svg">
<path d="M1.8392 8.24953C1.86447 4.89252 4.19206 2.0182 7.33089 0.964342C10.4697 -0.089517 14.2378 0.730993 16.5343 3.23717C17.7903 4.60862 18.4988 6.38948 18.5131 8.24869C18.5156 8.57386 19.0211 8.57471 19.0185 8.24869C18.9916 4.65917 16.509 1.60205 13.1562 0.476585C9.76378 -0.662358 5.78843 0.269351 3.38755 2.96086C2.08518 4.42076 1.34891 6.29092 1.33375 8.24869C1.33122 8.57386 1.83667 8.57471 1.8392 8.24869V8.24953Z" fill="#76B729"/>
<path d="M1.20723 13.288C1.6773 13.288 2.21055 13.3622 2.62923 13.1027C3.04791 12.8432 3.1987 12.3951 3.20291 11.9216C3.21134 11.0304 3.23577 10.1298 3.20291 9.23938C3.18101 8.64632 2.81709 8.13835 2.21813 8.0162C1.81293 7.93364 1.19544 7.92353 0.80456 8.06253C-0.218129 8.42814 0.0253281 9.75325 0.0253281 10.5982C0.0253281 11.0843 0.0110071 11.5729 0.0253281 12.0589C0.045546 12.7497 0.513928 13.2451 1.20723 13.288C1.53241 13.3082 1.53072 12.8028 1.20723 12.7826C0.290688 12.7253 0.530776 11.4288 0.530776 10.8054V9.58645C0.530776 9.30088 0.488655 8.96812 0.690835 8.73562C0.972201 8.41129 1.54841 8.48205 1.94013 8.49721C2.42452 8.51659 2.68483 8.83839 2.69746 9.30425C2.71684 10.0489 2.69746 10.7962 2.69746 11.5409C2.69746 11.8905 2.75727 12.3024 2.48854 12.5737C2.18022 12.8845 1.60654 12.7826 1.20723 12.7826C0.882062 12.7826 0.88122 13.288 1.20723 13.288Z" fill="#76B729"/>
<path d="M19.1441 12.7825C18.8181 12.7825 18.3767 12.8558 18.07 12.7185C17.6834 12.5458 17.6539 12.1684 17.6539 11.807V9.49712C17.6539 9.12477 17.6766 8.74569 18.07 8.56036C18.3463 8.42978 18.8408 8.46937 19.1382 8.49633C20.0556 8.57973 19.8206 9.78607 19.8206 10.4322V11.7792C19.8206 12.2527 19.7439 12.7446 19.1441 12.7817C18.8206 12.8019 18.8189 13.3074 19.1441 13.2871C19.8155 13.245 20.2965 12.7699 20.326 12.0934C20.3412 11.7337 20.326 11.3698 20.326 11.0093V9.44657C20.326 9.0161 20.2797 8.61259 19.9402 8.29921C19.5316 7.92265 18.9503 7.97993 18.4356 7.99088C17.8106 8.00352 17.2621 8.38429 17.1644 9.03042C17.1156 9.35391 17.1493 9.70098 17.1493 10.027V11.668C17.1493 12.1693 17.1644 12.6452 17.5856 13.0016C18.0068 13.3579 18.6142 13.288 19.1449 13.288C19.4701 13.288 19.471 12.7825 19.1449 12.7825H19.1441Z" fill="#76B729"/>
<path d="M13.3204 20.445C13.9901 20.445 14.6581 20.4661 15.3169 20.3195C16.2351 20.1157 17.1011 19.6431 17.7582 18.9674C18.3984 18.3095 18.8356 17.4621 18.9696 16.5522C19.0496 16.0106 19.0176 15.4495 19.0176 14.9036V13.1388C19.0176 12.8136 18.5122 12.8128 18.5122 13.1388V15.0233C18.5122 15.7511 18.5442 16.4646 18.3024 17.1647C17.9208 18.2674 17.0219 19.1477 15.9521 19.5917C15.0979 19.9463 14.2243 19.9396 13.3204 19.9396C12.9952 19.9396 12.9944 20.445 13.3204 20.445Z" fill="#76B729"/>
<path d="M12.6944 20.6793H10.8166C10.5378 20.6793 10.2472 20.7038 9.96916 20.6793C9.44265 20.6322 9.35925 19.7796 9.91862 19.7064C10.478 19.6331 11.1334 19.7064 11.7172 19.7064C12.0137 19.7064 12.3203 19.6828 12.616 19.7064C12.857 19.7257 13.0288 19.8032 13.0667 20.0787C13.1046 20.3542 13.0153 20.6507 12.6944 20.6793C12.3734 20.708 12.37 21.2143 12.6944 21.1848C13.2352 21.1359 13.5646 20.7661 13.5722 20.2261C13.5789 19.7611 13.3658 19.3256 12.8738 19.2194C12.627 19.1664 12.3439 19.2001 12.0946 19.2001H10.8166C10.1284 19.2001 9.13854 19.072 9.04588 20.0223C9.00207 20.467 9.1318 20.9186 9.57323 21.1107C9.81332 21.2151 10.0972 21.1839 10.3533 21.1839H12.6944C13.0195 21.1839 13.0204 20.6785 12.6944 20.6785V20.6793Z" fill="#76B729"/>
<path d="M6.97501 2.93239C7.86207 5.13109 9.28574 7.08464 11.3008 8.37269C12.7396 9.29261 14.4472 9.86292 16.1632 9.87135C16.4884 9.87303 16.4892 9.36759 16.1632 9.3659C12.1575 9.34568 8.89908 6.36017 7.46276 2.7976C7.3423 2.49939 6.8537 2.62996 6.97501 2.93239Z" fill="#76B729"/>
<path d="M5.11594 8.3987C5.60959 6.79643 6.64407 5.48985 8.07702 4.623C8.35502 4.45452 8.10145 4.01731 7.82177 4.18663C6.27594 5.12256 5.16058 6.53697 4.62818 8.26476C4.53214 8.57645 5.0199 8.70955 5.11594 8.39954V8.3987Z" fill="#76B729"/>
<path d="M15.4891 13.0598C15.8514 11.947 15.9702 10.7819 15.8497 9.61852C15.816 9.2984 15.3106 9.29503 15.3443 9.61852C15.4614 10.7406 15.351 11.8518 15.0022 12.925C14.9011 13.235 15.3889 13.3681 15.49 13.0598H15.4891Z" fill="#76B729"/>
</svg>
