<svg width="19" height="22" viewBox="0 0 19 22" fill="none" xmlns="http://www.w3.org/2000/svg">
<path d="M7.47261 13.2215C7.56611 13.9518 7.68658 14.614 8.23752 15.1556C8.45065 15.3654 8.7 15.5204 8.96873 15.6459C9.13048 15.7218 9.36214 15.8827 9.54663 15.8675C9.72101 15.854 9.93245 15.7057 10.0875 15.6333C10.3848 15.4935 10.6561 15.3098 10.8785 15.0664C11.314 14.587 11.5549 13.9047 11.5549 13.2552C11.5549 12.93 11.0495 12.9291 11.0495 13.2552C11.0495 13.8137 10.8372 14.4051 10.4371 14.7968C10.1405 15.0874 9.75639 15.2323 9.38573 15.4016H9.64098C9.29306 15.2416 8.92493 15.1026 8.63935 14.8397C8.15159 14.3916 8.05724 13.8432 7.97805 13.2223C7.93762 12.9039 7.43133 12.8997 7.47261 13.2223V13.2215Z" fill="#76B729"/>
<path d="M12.1303 15.0663C13.0881 15.1421 14.0485 15.2828 14.9743 15.5457C15.8024 15.7807 16.5934 16.0781 17.1166 16.7924C18.1283 18.1748 18.3237 20.0189 18.4248 21.6759C18.4442 21.9994 18.9505 22.0011 18.9303 21.6759C18.8199 19.8723 18.5925 17.8775 17.4493 16.4007C16.895 15.6838 16.0905 15.3502 15.2405 15.0967C14.233 14.7959 13.1766 14.6434 12.1303 14.5609C11.806 14.5356 11.8077 15.0411 12.1303 15.0663Z" fill="#76B729"/>
<path d="M12.7382 10.2016C12.3305 11.7019 11.3642 13.5956 9.57494 13.6319C8.74095 13.6487 8.03079 13.2056 7.50092 12.5906C7.22713 12.2731 7.00389 11.9117 6.81603 11.5376C6.70399 11.3144 6.60459 11.0853 6.51866 10.8511C6.45885 10.6876 6.31648 10.4273 6.31648 10.2572C6.31648 9.93199 5.81104 9.93115 5.81104 10.2572C5.81104 10.6725 6.10083 11.1956 6.27184 11.5688C6.48412 12.0304 6.74696 12.4668 7.0696 12.8594C7.66603 13.5864 8.5017 14.1163 9.46205 14.1373C11.5521 14.1845 12.7475 12.0995 13.2268 10.3355C13.3119 10.0213 12.825 9.88735 12.739 10.2007L12.7382 10.2016Z" fill="#76B729"/>
<path d="M13.4822 8.20925C13.7307 8.15955 13.7282 8.14607 13.7021 8.41733C13.6827 8.62456 13.6187 8.83264 13.553 9.02976C13.4873 9.22689 13.4005 9.4139 13.3196 9.60513C13.28 9.69864 13.2446 9.79299 13.2118 9.88902C13.1941 9.94462 13.1764 10.0011 13.1587 10.0567C13.1427 10.135 13.1259 10.1325 13.1082 10.0508C12.8496 9.85364 12.5977 10.2925 12.8529 10.4871C13.1486 10.7121 13.4864 10.5714 13.6221 10.2555C13.7922 9.86122 13.9615 9.43581 14.0845 9.02302C14.1789 8.70628 14.2926 8.28928 14.1578 7.96748C14.0079 7.60945 13.665 7.65831 13.3466 7.72234C13.0281 7.78636 13.1629 8.27412 13.4814 8.21009L13.4822 8.20925Z" fill="#76B729"/>
<path d="M5.92482 10.0508C5.84394 10.1123 5.87933 10.0584 5.83552 9.93456C5.80014 9.83432 5.76728 9.73407 5.72601 9.63551C5.64261 9.43333 5.5491 9.23873 5.48002 9.03065C5.41937 8.84869 5.36208 8.66083 5.33681 8.47045C5.33176 8.43001 5.29553 8.259 5.3267 8.2152C5.37977 8.14022 5.41179 8.18234 5.55163 8.21099C5.86922 8.27501 6.00485 7.78809 5.68641 7.72323C5.36798 7.65836 5.02512 7.61034 4.87517 7.96837C4.74038 8.29017 4.85495 8.70801 4.94846 9.02391C5.07061 9.43754 5.23993 9.86212 5.41094 10.2564C5.54742 10.5714 5.88522 10.713 6.18007 10.488C6.43532 10.2934 6.18344 9.85453 5.92482 10.0517V10.0508Z" fill="#76B729"/>
<path d="M13.6328 7.83773C13.2512 7.33733 12.8687 6.83694 12.4871 6.33654C12.3835 6.20092 12.2251 6.16975 12.0903 6.28516C11.5015 6.79145 10.4114 6.94477 9.59763 6.96246C8.60105 6.98352 7.55899 6.8243 6.71742 6.24641C6.60116 6.16638 6.4411 6.22956 6.37203 6.33739C6.04854 6.83778 5.72421 7.33817 5.40072 7.83857C5.22382 8.11235 5.66103 8.36592 5.83709 8.09382C6.16058 7.59343 6.48491 7.09303 6.8084 6.59264L6.46301 6.68362C7.42504 7.34491 8.61369 7.48897 9.74842 7.46791C10.654 7.45106 11.7357 7.25646 12.4484 6.64403L12.0516 6.59264C12.4332 7.09303 12.8156 7.59343 13.1973 8.09382C13.3919 8.34907 13.8308 8.09719 13.6336 7.83857L13.6328 7.83773Z" fill="#76B729"/>
<path d="M12.9968 5.70297C13.2293 6.40891 13.2908 7.16371 13.1712 7.8983C13.1198 8.21673 13.6067 8.3532 13.659 8.03309C13.7929 7.2092 13.7457 6.36426 13.4846 5.56903C13.3835 5.26155 12.8949 5.39296 12.9968 5.70381V5.70297Z" fill="#76B729"/>
<path d="M5.31809 5.58848C5.0224 6.42836 5.14876 7.19833 5.37537 8.03316C5.46046 8.34654 5.94822 8.21344 5.86313 7.89837C5.65842 7.14694 5.5388 6.48143 5.80585 5.72242C5.91452 5.41494 5.42592 5.28268 5.31809 5.58763V5.58848Z" fill="#76B729"/>
<path d="M7.69432 13.694C7.38937 13.8347 7.00523 13.945 6.80642 14.2315C6.57813 14.56 6.66826 14.9012 6.82411 15.2323C7.11727 15.854 7.41043 16.4748 7.70359 17.0965C7.75835 17.2119 7.94621 17.2625 8.04898 17.1875C8.5797 16.8017 9.11126 16.415 9.64198 16.0292C9.90229 15.8396 9.65041 15.4007 9.38673 15.5928C8.85601 15.9786 8.32445 16.3653 7.79373 16.7511L8.13912 16.8421C7.89903 16.3333 7.65894 15.8253 7.4197 15.3165C7.3422 15.1514 7.19477 14.9484 7.16866 14.7639C7.11727 14.3949 7.69011 14.25 7.94873 14.1304C8.24358 13.9939 7.98748 13.5584 7.69348 13.694H7.69432Z" fill="#76B729"/>
<path d="M9.39293 16.0284C9.92365 16.4142 10.4552 16.8009 10.9859 17.1867C11.0895 17.2625 11.2774 17.2112 11.3313 17.0957C11.6211 16.4825 11.9101 15.8683 12.1998 15.2551C12.3431 14.9518 12.45 14.6502 12.2849 14.325C12.1198 13.9999 11.7298 13.8735 11.4063 13.7244C11.1131 13.5888 10.8562 14.0243 11.151 14.1608C11.4021 14.277 11.9126 14.4068 11.8646 14.7631C11.8385 14.9543 11.6776 15.1792 11.5975 15.3494C11.3633 15.8464 11.1283 16.3435 10.8941 16.8405L11.2395 16.7495C10.7088 16.3637 10.1772 15.977 9.64649 15.5912C9.38282 15.4 9.13094 15.838 9.39124 16.0276L9.39293 16.0284Z" fill="#76B729"/>
<path d="M9.97049 17.3551L10.5627 16.725C10.6747 16.6062 10.6545 16.4133 10.5113 16.3282C10.2224 16.1555 9.93258 15.9836 9.64363 15.8109C9.57202 15.768 9.45998 15.7595 9.38838 15.8109C9.1028 16.0156 8.81722 16.2212 8.53249 16.4259C8.40444 16.5177 8.35474 16.7014 8.4811 16.8227C8.67654 17.0105 8.87198 17.1984 9.06742 17.3862L8.99329 17.2077C8.99329 17.5337 9.49873 17.5337 9.49873 17.2077C9.49873 17.0501 9.32941 16.9372 9.22748 16.8387L8.83828 16.4646L8.7869 16.8614C9.07247 16.6567 9.35805 16.4512 9.64279 16.2465H9.38754C9.67648 16.4192 9.96627 16.591 10.2552 16.7637L10.2038 16.3669L9.61162 16.9971C9.38922 17.2338 9.74556 17.5918 9.9688 17.3542L9.97049 17.3551Z" fill="#76B729"/>
<path d="M9.54727 17.244C9.64499 17.613 9.74187 17.9828 9.83959 18.3518C9.95669 18.7949 10.0131 19.3525 10.2128 19.7662C10.3164 19.9818 10.0687 19.6356 10.2608 19.6668C10.2541 19.6659 10.206 19.7763 10.2018 19.7847C10.0772 19.9894 9.9828 20.2211 9.87497 20.435C9.68459 20.8141 9.4942 21.1932 9.30382 21.5715H9.74019C9.5557 21.205 9.37121 20.8377 9.18672 20.4713L8.86239 19.826C8.85481 19.81 8.80258 19.6752 8.78573 19.6727C8.98201 19.7005 8.73434 19.9523 8.82701 19.7805C8.90957 19.6263 8.92978 19.393 8.97443 19.2245L9.19093 18.4065C9.29034 18.03 9.39058 17.6534 9.48999 17.2768C9.57339 16.9618 9.08563 16.8278 9.00223 17.142C8.89861 17.5321 8.79584 17.9221 8.69222 18.3122C8.57429 18.7561 8.37716 19.238 8.32577 19.6946C8.29123 20.002 8.56165 20.3525 8.69559 20.6187C8.89777 21.0214 9.10079 21.424 9.30297 21.8276C9.38553 21.9927 9.65679 21.9927 9.73934 21.8276L10.3467 20.6187C10.4798 20.3542 10.7612 19.9928 10.714 19.6853C10.6424 19.2211 10.4672 18.7511 10.3476 18.297C10.2431 17.9011 10.1386 17.5051 10.0342 17.11C9.95163 16.7958 9.46387 16.9289 9.54643 17.2448L9.54727 17.244Z" fill="#76B729"/>
<path d="M0.610396 21.6766C0.711485 20.0196 0.907768 18.1755 1.91866 16.7931C2.42748 16.0973 3.18734 15.8008 3.99437 15.5657C4.93956 15.2903 5.9235 15.1445 6.90407 15.067C7.22587 15.0418 7.22924 14.5363 6.90407 14.5616C5.85779 14.6441 4.8014 14.7966 3.79388 15.0974C2.94388 15.3509 2.13938 15.6845 1.58507 16.4014C0.442755 17.8782 0.215304 19.8722 0.104105 21.6766C0.0838874 22.0018 0.590178 22.0001 0.609553 21.6766H0.610396Z" fill="#76B729"/>
<path d="M14.7159 20.2403C14.7108 20.7222 14.7058 21.2049 14.7007 21.6868C14.6973 22.0119 15.2028 22.0119 15.2061 21.6868C15.2112 21.2049 15.2163 20.7222 15.2213 20.2403C15.2247 19.9152 14.7192 19.9152 14.7159 20.2403Z" fill="#76B729"/>
<path d="M3.81349 20.2403C3.81855 20.7222 3.8236 21.2049 3.82866 21.6867C3.83203 22.0119 4.33747 22.0128 4.3341 21.6867C4.32905 21.2049 4.324 20.7222 4.31894 20.2403C4.31557 19.9151 3.81012 19.9143 3.81349 20.2403Z" fill="#76B729"/>
<path d="M17.1505 5.55286C17.4521 5.55286 17.367 5.80222 17.367 6.03978C17.367 6.21668 17.4437 6.63284 17.3089 6.75414C17.0048 7.02624 17.0697 6.2925 17.0697 6.20742C17.0697 6.02377 16.9728 5.57645 17.2179 5.5436C17.4968 5.50569 17.4336 5.00951 17.1505 5.04741C16.4766 5.13839 16.5642 5.75588 16.5642 6.27397C16.5642 6.46098 16.5347 6.68507 16.5853 6.86955C16.6729 7.18883 16.9821 7.31688 17.2862 7.30003C17.9508 7.2638 17.8725 6.58229 17.8725 6.10633C17.8725 5.90836 17.9053 5.67248 17.8514 5.47789C17.7613 5.1485 17.4572 5.04741 17.1505 5.04741C16.8254 5.04741 16.8245 5.55286 17.1505 5.55286Z" fill="#76B729"/>
<path d="M17.0609 7.11401C17.2151 7.6422 17.392 8.16365 17.6009 8.67247C17.7028 8.92014 17.8107 9.16528 17.9328 9.40453C18.055 9.64377 18.3279 9.92851 18.4121 10.1846C18.5452 10.589 17.7163 10.5325 17.5529 10.1846C17.4737 10.0153 17.4602 9.77772 17.4282 9.5966C17.2833 8.77861 17.2521 7.93536 17.3844 7.11401C17.4358 6.79557 16.9489 6.6591 16.8966 6.97922C16.7492 7.89745 16.4982 11.7186 18.4534 10.8973C18.7323 10.7802 19.0456 10.5671 18.9942 10.2234C18.9429 9.87965 18.5831 9.55279 18.4256 9.25626C18.044 8.53768 17.777 7.75845 17.5487 6.97922C17.4577 6.66753 16.9699 6.80063 17.0609 7.11401Z" fill="#76B729"/>
<path d="M13.4049 3.37762C11.1792 1.60519 7.64277 1.61108 5.41712 3.37762C5.16271 3.5798 5.52242 3.9353 5.7743 3.73481C7.76576 2.1536 11.0562 2.14854 13.0469 3.73481C13.2987 3.9353 13.6584 3.5798 13.404 3.37762H13.4049Z" fill="#76B729"/>
<path d="M5.77416 5.67248C7.75721 4.08706 11.0637 4.08706 13.0467 5.67248C13.2986 5.87382 13.6583 5.51832 13.4039 5.3153C11.1875 3.5437 7.63253 3.5437 5.41614 5.3153C5.16173 5.51832 5.52144 5.87382 5.77332 5.67248H5.77416Z" fill="#76B729"/>
<path d="M13.4791 5.4931V3.55639C13.4791 3.23122 12.9736 3.23038 12.9736 3.55639V5.4931C12.9736 5.81827 13.4791 5.81911 13.4791 5.4931Z" fill="#76B729"/>
<path d="M5.84871 5.49398V3.55727C5.84871 3.2321 5.34326 3.23126 5.34326 3.55727V5.49398C5.34326 5.81915 5.84871 5.82 5.84871 5.49398Z" fill="#76B729"/>
<path d="M5.66331 4.15946C4.37105 3.69697 3.07878 3.23449 1.78652 2.772V3.25976C4.04335 2.45189 6.29933 1.64401 8.55616 0.836137L9.18628 0.61037C9.27389 0.579201 9.43311 0.555614 9.5064 0.495802C9.4508 0.54045 9.33033 0.453682 9.51229 0.533711C9.67151 0.603631 9.84336 0.652491 10.0068 0.710618C11.326 1.18321 12.6452 1.65496 13.9644 2.12756C15.0183 2.50496 16.0722 2.88236 17.126 3.25976V2.772C15.8034 3.24544 14.4817 3.71803 13.1591 4.19147C12.855 4.30014 12.9864 4.78874 13.2939 4.67923C14.6165 4.20579 15.9382 3.7332 17.2608 3.25976C17.5001 3.17383 17.5001 2.85793 17.2608 2.772C14.9863 1.95739 12.7118 1.14362 10.4373 0.329004C10.1542 0.227915 9.82904 0.0501656 9.53083 0.00467523C9.30843 -0.0290213 9.04139 0.126825 8.83836 0.199273L4.85291 1.62632C3.78641 2.00793 2.71907 2.39039 1.65258 2.772C1.41333 2.85793 1.41333 3.17383 1.65258 3.25976C2.94484 3.72225 4.2371 4.18473 5.52936 4.64722C5.836 4.75673 5.96826 4.26897 5.66415 4.15946H5.66331Z" fill="#76B729"/>
<path d="M16.9404 3.0162V5.17362C16.9404 5.49879 17.4459 5.49963 17.4459 5.17362V3.0162C17.4459 2.69103 16.9404 2.69018 16.9404 3.0162Z" fill="#76B729"/>
</svg>
