<svg width="86" height="86" viewBox="0 0 86 86" fill="none" xmlns="http://www.w3.org/2000/svg">
<path d="M76.5813 54.559V54.5078C69.3304 60.3387 57.2442 64.0229 42.9875 64.0229C30.5326 64.0229 19.7353 61.2106 12.3703 56.6121C11.3251 55.9503 10.3429 55.2496 9.43423 54.5085V54.5384C9.42147 54.528 9.40702 54.5184 9.39392 54.5078V69.9682C9.39392 78.8077 24.4636 85.9999 42.9877 85.9999C61.5118 85.9999 76.5814 78.8077 76.5814 69.9682V60.4799L76.6066 54.5401C76.5982 54.5466 76.5895 54.5525 76.5813 54.559Z" fill="#76B729"/>
<path d="M42.9877 57.2488C61.5118 57.2488 76.5814 50.0564 76.5814 41.2172V40.3458V33.9077V31.1069L76.6066 29.3538C76.5984 29.3603 76.5895 29.3662 76.5814 29.3727V29.3222C69.3305 35.1531 57.2444 38.8373 42.9877 38.8373C30.5383 38.8373 19.745 36.0272 12.3802 31.432C11.3314 30.7682 10.346 30.0653 9.43423 29.322V29.3526C9.42147 29.3422 9.40702 29.3326 9.39392 29.322V33.9076V40.3456V41.2171C9.39392 50.0566 24.4636 57.2488 42.9877 57.2488Z" fill="#76B729"/>
<path d="M42.9879 32.0636C61.512 32.0636 76.5817 24.8713 76.5817 16.0319C76.5817 15.7788 76.5266 15.5324 76.5024 15.2823C76.362 13.848 75.8567 12.4587 74.9742 11.1466C70.6326 4.68935 57.9417 0 42.9879 0C28.0342 0 15.3433 4.68935 11.002 11.1464C10.1191 12.4586 9.61388 13.8478 9.4738 15.2821C9.44911 15.5321 9.39401 15.7786 9.39401 16.0318C9.39418 24.8711 24.4638 32.0636 42.9879 32.0636Z" fill="#76B729"/>
</svg>
