<svg width="345" height="345" viewBox="0 0 345 345" fill="none" xmlns="http://www.w3.org/2000/svg">
<g opacity="0.1">
<circle cx="12.5" cy="12.5" r="12.5" fill="white"/>
<circle cx="12.5" cy="92.5" r="12.5" fill="white"/>
<circle cx="12.5" cy="172.5" r="12.5" fill="white"/>
<circle cx="12.5" cy="252.5" r="12.5" fill="white"/>
<circle cx="12.5" cy="332.5" r="12.5" fill="white"/>
<circle cx="92.5" cy="12.5" r="12.5" fill="white"/>
<circle cx="92.5" cy="92.5" r="12.5" fill="white"/>
<circle cx="92.5" cy="172.5" r="12.5" fill="white"/>
<circle cx="92.5" cy="252.5" r="12.5" fill="white"/>
<circle cx="92.5" cy="332.5" r="12.5" fill="white"/>
<circle cx="172.5" cy="12.5" r="12.5" fill="white"/>
<circle cx="172.5" cy="92.5" r="12.5" fill="white"/>
<circle cx="172.5" cy="172.5" r="12.5" fill="white"/>
<circle cx="172.5" cy="252.5" r="12.5" fill="white"/>
<circle cx="172.5" cy="332.5" r="12.5" fill="white"/>
<circle cx="252.5" cy="12.5" r="12.5" fill="white"/>
<circle cx="252.5" cy="92.5" r="12.5" fill="white"/>
<circle cx="252.5" cy="172.5" r="12.5" fill="white"/>
<circle cx="252.5" cy="252.5" r="12.5" fill="white"/>
<circle cx="252.5" cy="332.5" r="12.5" fill="white"/>
<circle cx="332.5" cy="12.5" r="12.5" fill="white"/>
<circle cx="332.5" cy="92.5" r="12.5" fill="white"/>
<circle cx="332.5" cy="172.5" r="12.5" fill="white"/>
<circle cx="332.5" cy="252.5" r="12.5" fill="white"/>
<circle cx="332.5" cy="332.5" r="12.5" fill="white"/>
</g>
</svg>
