<svg width="100" height="74" viewBox="0 0 100 74" fill="none" xmlns="http://www.w3.org/2000/svg">
<g clip-path="url(#clip0_104_1692)">
<path d="M14.9 71.2999C16.3 71.2999 17.4 70.1999 17.4 68.7999C17.4 67.3999 16.3 66.2999 14.9 66.2999C13.5 66.2999 12.4 67.3999 12.4 68.7999C12.4 70.1999 13.5 71.2999 14.9 71.2999ZM14.9 67.6999C15.5 67.6999 15.9 68.1999 15.9 68.6999C15.9 69.2999 15.4 69.6999 14.9 69.6999C14.3 69.6999 13.9 69.1999 13.9 68.6999C13.9 68.0999 14.3 67.6999 14.9 67.6999ZM17.5 24.3999H12.3C11.8 24.3999 11.3 24.7999 11.3 25.3999C11.3 25.9999 11.7 26.3999 12.3 26.3999H17.5C18 26.3999 18.5 25.9999 18.5 25.3999C18.5 24.7999 18.1 24.3999 17.5 24.3999Z" fill="#D2D2D2"/>
<path d="M99 56.9H91.1C92.3 55.7 93 54.1 93 52.3V6.4C93 2.9 90.1 0 86.6 0H14.4C10.9 0 8 2.9 8 6.4V20.2H4.8C2.2 20.2 0 22.3 0 25V69.1C0 71.7 2.2 73.9 4.8 73.9H25C27.6 73.9 29.8 71.7 29.8 69.1V62.9H95C97.8 62.9 100 60.6 100 57.9C100 57.3 99.6 56.9 99 56.9ZM10 6.4C10 3.9 12 1.9 14.5 1.9H86.8C89.3 1.9 91.3 3.9 91.3 6.4V52.3C91.3 54.8 89.3 56.8 86.8 56.8H29.8V54.5H88.2C88.7 54.5 89.2 54.1 89.2 53.5V5.2C89.2 4.7 88.8 4.2 88.2 4.2H13C12.5 4.2 12 4.6 12 5.2V20.2H10V6.4ZM27.9 69.1C27.9 70.7 26.6 72 25 72H4.8C3.2 72 1.9 70.7 1.9 69.1V65.5H27.9V69.1ZM27.9 63.6H1.9V30.5H27.9V63.6ZM27.9 28.6H1.9V25C1.9 23.4 3.2 22.1 4.8 22.1H25C26.6 22.1 27.9 23.4 27.9 25V28.6ZM25 20.2H13.9V6.2H87.2V52.6H29.8V25C29.8 22.3 27.6 20.2 25 20.2ZM95 61H29.8V58.8H97.9C97.5 60.1 96.3 61 95 61Z" fill="#D2D2D2"/>
</g>
<defs>
<clipPath id="clip0_104_1692">
<rect width="100" height="73.9" fill="white"/>
</clipPath>
</defs>
</svg>
