<svg width="408" height="441" viewBox="0 0 408 441" fill="none" xmlns="http://www.w3.org/2000/svg">
<g clip-path="url(#clip0_135_1344)">
<path d="M370.382 236.132C370.332 159.301 381.883 138.961 340.289 74.0524C298.694 9.14427 196.591 -5.22953 119.408 42.9142C42.2256 91.0579 21.4333 152.973 21.4333 152.973C21.4333 152.973 -6.57099 225.284 32.7837 298.117C68.7735 364.733 139.648 402.591 201.131 433.739H358.319C367.61 425.944 375.736 416.432 382.345 405.313C414.358 351.434 370.443 312.973 370.392 236.142L370.382 236.132Z" fill="#92E3A9"/>
<path opacity="0.7" d="M370.382 236.132C370.332 159.301 381.883 138.961 340.289 74.0524C298.694 9.14427 196.591 -5.22953 119.408 42.9142C42.2256 91.0579 21.4333 152.973 21.4333 152.973C21.4333 152.973 -6.57099 225.284 32.7837 298.117C68.7735 364.733 139.648 402.591 201.131 433.739H358.319C367.61 425.944 375.736 416.432 382.345 405.313C414.358 351.434 370.443 312.973 370.392 236.142L370.382 236.132Z" fill="white"/>
<path d="M184.015 26.0359C185.371 31.4098 184.708 21.5159 187.37 9.41215C190.031 -2.69158 194.592 2.22023 194.592 2.22023" stroke="#263238" stroke-width="1.00446" stroke-linecap="round" stroke-linejoin="round"/>
<path d="M183.182 13.6728L191.519 10.2476" stroke="#263238" stroke-width="1.00446" stroke-linecap="round" stroke-linejoin="round"/>
<path d="M198.419 6.14819C198.419 6.14819 193.437 16.464 200.95 20.8434" stroke="#263238" stroke-width="1.00446" stroke-linecap="round" stroke-linejoin="round"/>
<path d="M205.491 3.24768C205.491 3.24768 213.718 7.81797 208.565 17.7219" stroke="#263238" stroke-width="1.00446" stroke-linecap="round" stroke-linejoin="round"/>
<path d="M199.855 9.6344L205.752 13.9435" stroke="#263238" stroke-width="1.00446" stroke-linecap="round" stroke-linejoin="round"/>
<path d="M204.476 7.74634L199.865 15.0889" stroke="#263238" stroke-width="1.00446" stroke-linecap="round" stroke-linejoin="round"/>
<path d="M24.8188 268.816C24.8188 268.816 10.8267 268.605 10.8066 280.689" stroke="#263238" stroke-width="1.00446" stroke-linecap="round" stroke-linejoin="round"/>
<path d="M23.6641 276.418C23.3728 274.641 17.2757 272.441 16.2311 277.041C15.1764 281.642 22.74 278.889 25.0804 276.72C25.0804 276.72 20.7411 280.939 22.1072 282.134" stroke="#263238" stroke-width="1.00446" stroke-linecap="round" stroke-linejoin="round"/>
<path d="M24.5382 283.481C24.5382 283.481 22.7 285.791 20.7012 284.696" stroke="#263238" stroke-width="1.00446" stroke-linecap="round" stroke-linejoin="round"/>
<path d="M36.7622 275.385L26.2656 286.092C26.2656 286.092 31.5089 280.739 34.6026 282.436C38.4196 284.535 33.4676 290.251 29.3895 286.153" stroke="#263238" stroke-width="1.00446" stroke-linecap="round" stroke-linejoin="round"/>
<path d="M42.0648 278.298C42.0648 278.298 44.8371 291.054 30.4834 291.506" stroke="#263238" stroke-width="1.00446" stroke-linecap="round" stroke-linejoin="round"/>
<path d="M229.457 61.606L234.509 62.4396L234.59 73.9407L245.669 53.7209L263.167 56.5937" stroke="#263238" stroke-width="1.00446" stroke-linecap="round" stroke-linejoin="round"/>
<path d="M247.598 62.5806L255.292 76.1608" stroke="#263238" stroke-width="1.00446" stroke-linecap="round" stroke-linejoin="round"/>
<path d="M257.26 64.1672L243.489 74.2219" stroke="#263238" stroke-width="1.00446" stroke-linecap="round" stroke-linejoin="round"/>
<path d="M160.28 82.0751C158.984 80.4278 151.521 81.6031 153.037 86.8966C154.544 92.1901 160.721 85.1287 161.897 81.6031C161.897 81.6031 159.838 88.353 161.897 88.795" stroke="#263238" stroke-width="1.00446" stroke-linecap="round" stroke-linejoin="round"/>
<path d="M165.996 76.6414L164.328 82.6078C164.328 82.6078 165.162 79.6246 166.618 79.6246C168.416 79.6246 167.763 82.6782 165.473 82.0052" stroke="#263238" stroke-width="1.00446" stroke-linecap="round" stroke-linejoin="round"/>
<path d="M306.689 149.697L303.174 162.403L310.868 170.81" stroke="#263238" stroke-width="1.00446" stroke-linecap="round" stroke-linejoin="round"/>
<path d="M311.09 154.858L319.899 162.221" stroke="#263238" stroke-width="1.00446" stroke-linecap="round" stroke-linejoin="round"/>
<path d="M317.156 153.042L313.349 162.393" stroke="#263238" stroke-width="1.00446" stroke-linecap="round" stroke-linejoin="round"/>
<path d="M323.344 161.188C323.344 161.188 323.424 163.84 322.279 164.182" stroke="#263238" stroke-width="1.00446" stroke-linecap="round" stroke-linejoin="round"/>
<path d="M324.458 151.926L329.762 155.873" stroke="#263238" stroke-width="1.00446" stroke-linecap="round" stroke-linejoin="round"/>
<path d="M331.741 148.682L326.498 167.566" stroke="#263238" stroke-width="1.00446" stroke-linecap="round" stroke-linejoin="round"/>
<path d="M331.992 142.122L340.51 151.765L336.884 162.312" stroke="#263238" stroke-width="1.00446" stroke-linecap="round" stroke-linejoin="round"/>
<path d="M97.4209 390.948L109.736 354.265L124.682 370.949L97.4209 390.948Z" stroke="#263238" stroke-width="1.00446" stroke-linecap="round" stroke-linejoin="round"/>
<path d="M121.025 373.632L117.871 370.026L121.226 367.113" stroke="#263238" stroke-width="1.00446" stroke-linecap="round" stroke-linejoin="round"/>
<path d="M24.5697 184.853C30.9711 182.202 34.0109 174.863 31.3594 168.461C28.7079 162.06 21.369 159.02 14.9677 161.672C8.56629 164.323 5.52645 171.662 8.17798 178.063C10.8295 184.465 18.1683 187.505 24.5697 184.853Z" stroke="#263238" stroke-width="1.00446" stroke-linecap="round" stroke-linejoin="round"/>
<path d="M33.6884 176.194C41.3772 176.194 47.6102 169.961 47.6102 162.273C47.6102 154.584 41.3772 148.351 33.6884 148.351C25.9996 148.351 19.7666 154.584 19.7666 162.273C19.7666 169.961 25.9996 176.194 33.6884 176.194Z" stroke="#263238" stroke-width="1.00446" stroke-linecap="round" stroke-linejoin="round"/>
<path d="M22.2366 160.957L20.5391 166.853" stroke="#263238" stroke-width="1.00446" stroke-linecap="round" stroke-linejoin="round"/>
<path d="M24.637 161.69L22.2363 170.187" stroke="#263238" stroke-width="1.00446" stroke-linecap="round" stroke-linejoin="round"/>
<path d="M27.1488 163.116L24.6377 172.729" stroke="#263238" stroke-width="1.00446" stroke-linecap="round" stroke-linejoin="round"/>
<path d="M29.951 165.939L28.1631 175.06" stroke="#263238" stroke-width="1.00446" stroke-linecap="round" stroke-linejoin="round"/>
<path d="M31.5382 168.911L29.9512 175.691" stroke="#263238" stroke-width="1.00446" stroke-linecap="round" stroke-linejoin="round"/>
<path d="M7.77321 157.19C6.67835 156.848 3.67501 159.701 6.00536 161.619C8.3357 163.538 8.92833 158.425 8.35579 156.467C8.35579 156.467 9.53101 160.153 10.5957 159.711" stroke="#263238" stroke-width="1.00446" stroke-linecap="round" stroke-linejoin="round"/>
<path d="M23.9648 141.079L27.9525 148.392C27.9525 148.392 25.9537 144.735 27.3599 143.359C29.0976 141.672 31.3376 145.228 28.495 146.734" stroke="#263238" stroke-width="1.00446" stroke-linecap="round" stroke-linejoin="round"/>
<path d="M97.3809 140.205L103.056 145.579" stroke="#263238" stroke-width="1.00446" stroke-linecap="round" stroke-linejoin="round"/>
<path d="M103.057 138.808L98.2959 145.9" stroke="#263238" stroke-width="1.00446" stroke-linecap="round" stroke-linejoin="round"/>
<path d="M108.632 140.848L114.307 138.739" stroke="#263238" stroke-width="1.00446" stroke-linecap="round" stroke-linejoin="round"/>
<path d="M117.028 132.813L120.484 135.866" stroke="#263238" stroke-width="1.00446" stroke-linecap="round" stroke-linejoin="round"/>
<path d="M123.135 129.146L118.756 144.142" stroke="#263238" stroke-width="1.00446" stroke-linecap="round" stroke-linejoin="round"/>
<path d="M371.185 126.121L370.954 114.65H379.623C379.623 114.65 374.821 117.291 377.021 123.469C379.221 129.646 382.797 126.111 382.797 126.111" stroke="#263238" stroke-width="1.00446" stroke-linecap="round" stroke-linejoin="round"/>
<path d="M356.5 321.801L366.364 315.011L379.432 315.925L380.245 332.489L370.653 339.339L358.83 338.475L356.5 321.801Z" stroke="#263238" stroke-width="1.00446" stroke-linecap="round" stroke-linejoin="round"/>
<path d="M358.83 338.474L368.372 331.603L380.245 332.487" stroke="#263238" stroke-width="1.00446" stroke-linecap="round" stroke-linejoin="round"/>
<path d="M368.372 331.605L366.363 315.011" stroke="#263238" stroke-width="1.00446" stroke-linecap="round" stroke-linejoin="round"/>
<path d="M356.5 321.801L369.538 323.307L379.432 315.925" stroke="#263238" stroke-width="1.00446" stroke-linecap="round" stroke-linejoin="round"/>
<path d="M369.538 323.308L370.653 339.339" stroke="#263238" stroke-width="1.00446" stroke-linecap="round" stroke-linejoin="round"/>
<path d="M358.299 197.47L357.877 219.548L377.223 210.759L358.299 197.47Z" stroke="#263238" stroke-width="1.00446" stroke-linecap="round" stroke-linejoin="round"/>
<path d="M358.299 197.47L367.51 215.038" stroke="#263238" stroke-width="1.00446" stroke-linecap="round" stroke-linejoin="round"/>
<path d="M366.033 212.214L368.283 211.14L369.78 214.133" stroke="#263238" stroke-width="1.00446" stroke-linecap="round" stroke-linejoin="round"/>
<path d="M189.72 195.379L197.705 203.947" stroke="#263238" stroke-width="1.00446" stroke-linecap="round" stroke-linejoin="round"/>
<path d="M197.775 194.225L191.056 203.426" stroke="#263238" stroke-width="1.00446" stroke-linecap="round" stroke-linejoin="round"/>
<path d="M201.041 189.736C201.041 189.736 202.899 189.012 203.291 190.941C203.683 192.87 200.519 195.381 200.519 195.381H205.029" stroke="#263238" stroke-width="1.00446" stroke-linecap="round" stroke-linejoin="round"/>
<path d="M65.2275 66.9995C66.0512 56.7439 72.088 48.1458 80.5455 43.6357" stroke="#263238" stroke-width="1.00446" stroke-linecap="round" stroke-linejoin="round"/>
<path d="M87.4455 97.6263C79.9623 95.8384 73.6844 91.1978 69.7168 85.0002" stroke="#263238" stroke-width="1.00446" stroke-linecap="round" stroke-linejoin="round"/>
<path d="M123.245 71.6306C121.969 87.6517 107.937 99.6048 91.916 98.3291" stroke="#263238" stroke-width="1.00446" stroke-linecap="round" stroke-linejoin="round"/>
<path d="M96.5576 40.311C110.449 41.4159 121.277 52.1034 123.075 65.3622" stroke="#263238" stroke-width="1.00446" stroke-linecap="round" stroke-linejoin="round"/>
<path d="M106.792 91.7194C102.503 94.1301 97.4708 95.3355 92.1974 94.9136C78.0646 93.7886 67.5178 81.4137 68.6428 67.2709" stroke="#263238" stroke-width="1.00446" stroke-linecap="round" stroke-linejoin="round"/>
<path d="M70.2793 60.0788C74.257 49.7429 84.6832 42.8021 96.2847 43.7262C110.417 44.8512 120.964 57.2261 119.839 71.3689C119.377 77.1847 117.007 82.3878 113.401 86.4257" stroke="#263238" stroke-width="1.00446" stroke-linecap="round" stroke-linejoin="round"/>
<path d="M91.7148 50.8381L94.236 69.3202L108.449 64.9006" stroke="#263238" stroke-width="1.00446" stroke-linecap="round" stroke-linejoin="round"/>
<path d="M315.7 105.239C307.322 105.32 299.447 100.127 296.504 91.7795C293.732 83.9045 296.143 75.467 301.949 70.1836" stroke="#263238" stroke-width="1.00446" stroke-linecap="round" stroke-linejoin="round"/>
<path d="M334.584 91.5892C332.655 97.2242 328.256 101.955 322.209 104.095" stroke="#263238" stroke-width="1.00446" stroke-linecap="round" stroke-linejoin="round"/>
<path d="M308.819 66.0858C319.316 62.3894 330.817 67.9039 334.513 78.4005" stroke="#263238" stroke-width="1.00446" stroke-linecap="round" stroke-linejoin="round"/>
<path d="M325.464 70.3645C328.517 72.4236 330.968 75.4471 332.284 79.1937C335.548 88.4548 330.677 98.5998 321.426 101.864C314.485 104.305 307.042 102.186 302.371 97.063" stroke="#263238" stroke-width="1.00446" stroke-linecap="round" stroke-linejoin="round"/>
<path d="M298.745 90.9948C295.48 81.7337 300.352 71.5887 309.603 68.3242C313.078 67.0987 316.674 67.0184 319.989 67.8923" stroke="#263238" stroke-width="1.00446" stroke-linecap="round" stroke-linejoin="round"/>
<path d="M308.729 74.1101L315.51 85.0888L309.322 93.1245" stroke="#263238" stroke-width="1.00446" stroke-linecap="round" stroke-linejoin="round"/>
<path d="M173.137 385.341C173.137 379.777 175.949 374.865 180.238 371.962" stroke="#263238" stroke-width="1.00446" stroke-linecap="round" stroke-linejoin="round"/>
<path d="M201.011 396.472C198.068 399.566 193.909 401.494 189.299 401.494C182.197 401.494 176.161 396.914 174.001 390.546" stroke="#263238" stroke-width="1.00446" stroke-linecap="round" stroke-linejoin="round"/>
<path d="M189.298 369.181C198.217 369.181 205.46 376.413 205.46 385.343" stroke="#263238" stroke-width="1.00446" stroke-linecap="round" stroke-linejoin="round"/>
<path d="M189.298 399.596C181.423 399.596 175.045 393.218 175.045 385.343" stroke="#263238" stroke-width="1.00446" stroke-linecap="round" stroke-linejoin="round"/>
<path d="M178.199 376.402C180.811 373.168 184.819 371.088 189.298 371.088C197.173 371.088 203.552 377.467 203.552 385.342C203.552 390.695 200.599 395.366 196.229 397.797" stroke="#263238" stroke-width="1.00446" stroke-linecap="round" stroke-linejoin="round"/>
<path d="M187.088 395.034L189.298 385.341L186.204 377.426" stroke="#263238" stroke-width="1.00446" stroke-linecap="round" stroke-linejoin="round"/>
<path d="M1.12305 434.08H407.497" stroke="#263238" stroke-width="1.00446" stroke-linecap="round" stroke-linejoin="round"/>
<path d="M207.309 222.269L200.689 348.298L116.837 343.899L117.53 330.539L123.456 217.859L176.261 220.632L207.309 222.269Z" fill="white"/>
<mask id="mask0_135_1344" style="mask-type:luminance" maskUnits="userSpaceOnUse" x="116" y="217" width="92" height="132">
<path d="M207.309 222.268L200.689 348.297L116.837 343.898L117.53 330.538L123.456 217.858L176.261 220.631L207.309 222.268Z" fill="white"/>
</mask>
<g mask="url(#mask0_135_1344)">
<path opacity="0.2" d="M181.142 296.106L162.248 297.663L167.752 321.458L117.529 330.538L123.456 217.858L176.26 220.631L181.142 296.106Z" fill="black"/>
</g>
<path d="M207.309 222.269L200.689 348.298L116.837 343.899L117.53 330.539L123.456 217.859L176.261 220.632L207.309 222.269Z" stroke="#263238" stroke-width="1.00446" stroke-linecap="round" stroke-linejoin="round"/>
<path d="M129.372 226.478L151.189 227.633" stroke="#263238" stroke-width="2.00892" stroke-linecap="round" stroke-linejoin="round"/>
<path d="M129.151 230.677L143.987 231.45" stroke="#263238" stroke-width="2.00892" stroke-linecap="round" stroke-linejoin="round"/>
<path d="M133.952 240.841L196.721 244.136" stroke="#263238" stroke-width="2.00892" stroke-linecap="round" stroke-linejoin="round"/>
<path d="M133.732 245.03L196.501 248.325" stroke="#263238" stroke-width="2.00892" stroke-linecap="round" stroke-linejoin="round"/>
<path d="M133.471 249.921L187.008 252.734" stroke="#263238" stroke-width="2.00892" stroke-linecap="round" stroke-linejoin="round"/>
<path d="M138.608 254.651L133.502 254.383L133.233 259.488L138.339 259.757L138.608 254.651Z" stroke="#263238" stroke-width="1.00446" stroke-linecap="round" stroke-linejoin="round"/>
<path d="M147.851 255.136L142.745 254.867L142.477 259.973L147.582 260.242L147.851 255.136Z" stroke="#263238" stroke-width="1.00446" stroke-linecap="round" stroke-linejoin="round"/>
<path d="M157.104 255.631L151.998 255.362L151.73 260.468L156.835 260.736L157.104 255.631Z" stroke="#263238" stroke-width="1.00446" stroke-linecap="round" stroke-linejoin="round"/>
<path d="M166.357 256.116L161.251 255.848L160.983 260.954L166.088 261.222L166.357 256.116Z" stroke="#263238" stroke-width="1.00446" stroke-linecap="round" stroke-linejoin="round"/>
<path d="M130.608 240.662C130.568 241.365 129.966 241.907 129.262 241.877C128.559 241.837 128.017 241.234 128.047 240.531C128.087 239.828 128.69 239.285 129.393 239.326C130.096 239.366 130.639 239.968 130.598 240.672L130.608 240.662Z" fill="#263238"/>
<path d="M132.666 265.279L195.435 268.573" stroke="#263238" stroke-width="2.00892" stroke-linecap="round" stroke-linejoin="round"/>
<path d="M132.445 269.469L195.214 272.764" stroke="#263238" stroke-width="2.00892" stroke-linecap="round" stroke-linejoin="round"/>
<path d="M132.185 274.359L185.732 277.171" stroke="#263238" stroke-width="2.00892" stroke-linecap="round" stroke-linejoin="round"/>
<path d="M137.305 279.098L132.199 278.83L131.931 283.935L137.036 284.204L137.305 279.098Z" stroke="#263238" stroke-width="1.00446" stroke-linecap="round" stroke-linejoin="round"/>
<path d="M146.559 279.575L141.453 279.306L141.185 284.412L146.29 284.68L146.559 279.575Z" stroke="#263238" stroke-width="1.00446" stroke-linecap="round" stroke-linejoin="round"/>
<path d="M155.82 280.069L150.715 279.801L150.446 284.907L155.552 285.175L155.82 280.069Z" stroke="#263238" stroke-width="1.00446" stroke-linecap="round" stroke-linejoin="round"/>
<path d="M165.074 280.553L159.969 280.284L159.7 285.39L164.806 285.659L165.074 280.553Z" stroke="#263238" stroke-width="1.00446" stroke-linecap="round" stroke-linejoin="round"/>
<path d="M129.322 265.099C129.282 265.803 128.679 266.345 127.976 266.305C127.273 266.265 126.731 265.662 126.761 264.959C126.801 264.256 127.404 263.713 128.107 263.743C128.81 263.784 129.352 264.386 129.322 265.089V265.099Z" fill="#263238"/>
<path d="M131.381 289.719L194.16 293.013" stroke="#263238" stroke-width="2.00892" stroke-linecap="round" stroke-linejoin="round"/>
<path d="M131.16 293.908L193.939 297.202" stroke="#263238" stroke-width="2.00892" stroke-linecap="round" stroke-linejoin="round"/>
<path d="M130.909 298.798L184.447 301.61" stroke="#263238" stroke-width="2.00892" stroke-linecap="round" stroke-linejoin="round"/>
<path d="M136.033 303.526L130.928 303.258L130.659 308.364L135.765 308.632L136.033 303.526Z" stroke="#263238" stroke-width="1.00446" stroke-linecap="round" stroke-linejoin="round"/>
<path d="M145.287 304.012L140.182 303.744L139.913 308.849L145.019 309.118L145.287 304.012Z" stroke="#263238" stroke-width="1.00446" stroke-linecap="round" stroke-linejoin="round"/>
<path d="M154.539 304.508L149.434 304.24L149.165 309.345L154.271 309.614L154.539 304.508Z" stroke="#263238" stroke-width="1.00446" stroke-linecap="round" stroke-linejoin="round"/>
<path d="M163.793 304.991L158.688 304.723L158.419 309.829L163.525 310.097L163.793 304.991Z" stroke="#263238" stroke-width="1.00446" stroke-linecap="round" stroke-linejoin="round"/>
<path d="M128.036 289.538C127.996 290.241 127.393 290.783 126.69 290.753C125.987 290.713 125.445 290.11 125.475 289.407C125.515 288.704 126.118 288.162 126.821 288.202C127.524 288.242 128.066 288.845 128.036 289.548V289.538Z" fill="#263238"/>
<path d="M130.064 314.849L192.833 318.154" stroke="#263238" stroke-width="2.00892" stroke-linecap="round" stroke-linejoin="round"/>
<path d="M129.844 319.049L192.612 322.343" stroke="#263238" stroke-width="2.00892" stroke-linecap="round" stroke-linejoin="round"/>
<path d="M129.583 323.929L183.121 326.742" stroke="#263238" stroke-width="2.00892" stroke-linecap="round" stroke-linejoin="round"/>
<path d="M134.705 328.677L129.6 328.409L129.331 333.514L134.437 333.783L134.705 328.677Z" stroke="#263238" stroke-width="1.00446" stroke-linecap="round" stroke-linejoin="round"/>
<path d="M143.958 329.161L138.853 328.892L138.584 333.998L143.69 334.266L143.958 329.161Z" stroke="#263238" stroke-width="1.00446" stroke-linecap="round" stroke-linejoin="round"/>
<path d="M153.211 329.636L148.105 329.368L147.837 334.473L152.943 334.742L153.211 329.636Z" stroke="#263238" stroke-width="1.00446" stroke-linecap="round" stroke-linejoin="round"/>
<path d="M162.474 330.132L157.368 329.864L157.1 334.969L162.205 335.238L162.474 330.132Z" stroke="#263238" stroke-width="1.00446" stroke-linecap="round" stroke-linejoin="round"/>
<path d="M126.721 314.68C126.681 315.383 126.078 315.925 125.375 315.895C124.672 315.865 124.129 315.252 124.159 314.549C124.2 313.846 124.802 313.304 125.505 313.334C126.209 313.364 126.751 313.977 126.721 314.68Z" fill="#263238"/>
<path d="M135.238 256.51L135.901 257.655L138.613 254.652" stroke="#263238" stroke-width="2.00892" stroke-linecap="round" stroke-linejoin="round"/>
<path d="M152.475 281.611L153.138 282.756L155.86 279.753" stroke="#263238" stroke-width="2.00892" stroke-linecap="round" stroke-linejoin="round"/>
<path d="M161.123 307.407L161.786 308.552L164.508 305.549" stroke="#263238" stroke-width="2.00892" stroke-linecap="round" stroke-linejoin="round"/>
<path d="M140.632 330.428L141.295 331.573L144.017 328.56" stroke="#263238" stroke-width="2.00892" stroke-linecap="round" stroke-linejoin="round"/>
<path d="M151.591 312.631L70.6816 335.121L36.8916 213.511L70.3903 204.2L117.801 191.031L148.457 301.371L151.591 312.631Z" fill="white"/>
<mask id="mask1_135_1344" style="mask-type:luminance" maskUnits="userSpaceOnUse" x="36" y="191" width="116" height="145">
<path d="M151.591 312.632L70.6816 335.122L36.8916 213.512L70.3903 204.201L117.801 191.032L148.457 301.372L151.591 312.632Z" fill="white"/>
</mask>
<g mask="url(#mask1_135_1344)">
<path opacity="0.2" d="M148.456 301.372L85.8985 305.41L70.3896 204.201L117.8 191.032L148.456 301.372Z" fill="black"/>
</g>
<path d="M151.591 312.631L70.6816 335.121L36.8916 213.511L70.3903 204.2L117.801 191.031L148.457 301.371L151.591 312.631Z" stroke="#263238" stroke-width="1.00446" stroke-linecap="round" stroke-linejoin="round"/>
<path d="M45.2383 219.809L66.2917 213.953" stroke="#263238" stroke-width="2.00892" stroke-linecap="round" stroke-linejoin="round"/>
<path d="M46.3643 223.847L60.6778 219.87" stroke="#263238" stroke-width="2.00892" stroke-linecap="round" stroke-linejoin="round"/>
<path d="M54.1484 231.962L114.707 215.138" stroke="#263238" stroke-width="2.00892" stroke-linecap="round" stroke-linejoin="round"/>
<path d="M55.2734 236L115.832 219.176" stroke="#263238" stroke-width="2.00892" stroke-linecap="round" stroke-linejoin="round"/>
<path d="M56.5791 240.722L108.238 226.368" stroke="#263238" stroke-width="2.00892" stroke-linecap="round" stroke-linejoin="round"/>
<path d="M62.9631 243.57L58.0371 244.938L59.406 249.865L64.332 248.496L62.9631 243.57Z" stroke="#263238" stroke-width="1.00446" stroke-linecap="round" stroke-linejoin="round"/>
<path d="M71.887 241.092L66.9609 242.461L68.3298 247.387L73.2559 246.018L71.887 241.092Z" stroke="#263238" stroke-width="1.00446" stroke-linecap="round" stroke-linejoin="round"/>
<path d="M80.8215 238.61L75.8955 239.979L77.2644 244.905L82.1904 243.536L80.8215 238.61Z" stroke="#263238" stroke-width="1.00446" stroke-linecap="round" stroke-linejoin="round"/>
<path d="M89.7454 236.13L84.8193 237.498L86.1882 242.424L91.1143 241.056L89.7454 236.13Z" stroke="#263238" stroke-width="1.00446" stroke-linecap="round" stroke-linejoin="round"/>
<path d="M50.9247 232.858C51.1156 233.541 50.7138 234.244 50.0307 234.435C49.3477 234.626 48.6446 234.224 48.4537 233.541C48.2629 232.858 48.6647 232.155 49.3477 231.964C50.0307 231.773 50.7339 232.175 50.9247 232.858Z" fill="#263238"/>
<path d="M60.6973 255.537L121.266 238.712" stroke="#263238" stroke-width="2.00892" stroke-linecap="round" stroke-linejoin="round"/>
<path d="M61.8223 259.585L122.381 242.75" stroke="#263238" stroke-width="2.00892" stroke-linecap="round" stroke-linejoin="round"/>
<path d="M63.1289 264.295L114.788 249.941" stroke="#263238" stroke-width="2.00892" stroke-linecap="round" stroke-linejoin="round"/>
<path d="M69.5188 267.144L64.5928 268.512L65.9617 273.439L70.8877 272.07L69.5188 267.144Z" stroke="#263238" stroke-width="1.00446" stroke-linecap="round" stroke-linejoin="round"/>
<path d="M78.4426 264.672L73.5166 266.041L74.8855 270.967L79.8115 269.598L78.4426 264.672Z" stroke="#263238" stroke-width="1.00446" stroke-linecap="round" stroke-linejoin="round"/>
<path d="M87.3665 262.197L82.4404 263.566L83.8093 268.492L88.7353 267.123L87.3665 262.197Z" stroke="#263238" stroke-width="1.00446" stroke-linecap="round" stroke-linejoin="round"/>
<path d="M96.3001 259.704L91.374 261.072L92.7429 265.998L97.6689 264.63L96.3001 259.704Z" stroke="#263238" stroke-width="1.00446" stroke-linecap="round" stroke-linejoin="round"/>
<path d="M57.4726 256.442C57.6634 257.125 57.2616 257.828 56.5786 258.019C55.8956 258.209 55.1924 257.808 55.0016 257.125C54.8107 256.442 55.2125 255.738 55.8956 255.548C56.5786 255.357 57.2817 255.759 57.4726 256.442Z" fill="#263238"/>
<path d="M67.2471 279.123L127.816 262.289" stroke="#263238" stroke-width="2.00892" stroke-linecap="round" stroke-linejoin="round"/>
<path d="M68.3721 283.161L128.941 266.336" stroke="#263238" stroke-width="2.00892" stroke-linecap="round" stroke-linejoin="round"/>
<path d="M69.6875 287.883L121.337 273.529" stroke="#263238" stroke-width="2.00892" stroke-linecap="round" stroke-linejoin="round"/>
<path d="M76.0657 290.734L71.1396 292.103L72.5085 297.029L77.4346 295.66L76.0657 290.734Z" stroke="#263238" stroke-width="1.00446" stroke-linecap="round" stroke-linejoin="round"/>
<path d="M84.9993 288.254L80.0732 289.623L81.4421 294.549L86.3682 293.18L84.9993 288.254Z" stroke="#263238" stroke-width="1.00446" stroke-linecap="round" stroke-linejoin="round"/>
<path d="M93.9231 285.772L88.9971 287.141L90.366 292.067L95.292 290.698L93.9231 285.772Z" stroke="#263238" stroke-width="1.00446" stroke-linecap="round" stroke-linejoin="round"/>
<path d="M102.857 283.292L97.9307 284.661L99.2996 289.587L104.226 288.218L102.857 283.292Z" stroke="#263238" stroke-width="1.00446" stroke-linecap="round" stroke-linejoin="round"/>
<path d="M64.0224 280.017C64.2132 280.7 63.8114 281.404 63.1284 281.594C62.4454 281.785 61.7422 281.383 61.5514 280.7C61.3605 280.017 61.7623 279.314 62.4454 279.123C63.1284 278.933 63.8315 279.334 64.0224 280.017Z" fill="#263238"/>
<path d="M73.9863 303.369L134.555 286.544" stroke="#263238" stroke-width="2.00892" stroke-linecap="round" stroke-linejoin="round"/>
<path d="M75.1113 307.419L135.68 290.584" stroke="#263238" stroke-width="2.00892" stroke-linecap="round" stroke-linejoin="round"/>
<path d="M76.4277 312.128L128.077 297.774" stroke="#263238" stroke-width="2.00892" stroke-linecap="round" stroke-linejoin="round"/>
<path d="M82.8049 314.983L77.8789 316.352L79.2478 321.278L84.1738 319.909L82.8049 314.983Z" stroke="#263238" stroke-width="1.00446" stroke-linecap="round" stroke-linejoin="round"/>
<path d="M91.7385 312.492L86.8125 313.86L88.1814 318.787L93.1074 317.418L91.7385 312.492Z" stroke="#263238" stroke-width="1.00446" stroke-linecap="round" stroke-linejoin="round"/>
<path d="M100.662 310.011L95.7363 311.38L97.1052 316.306L102.031 314.937L100.662 310.011Z" stroke="#263238" stroke-width="1.00446" stroke-linecap="round" stroke-linejoin="round"/>
<path d="M109.596 307.53L104.67 308.899L106.039 313.825L110.965 312.456L109.596 307.53Z" stroke="#263238" stroke-width="1.00446" stroke-linecap="round" stroke-linejoin="round"/>
<path d="M70.7626 304.273C70.9534 304.957 70.5517 305.66 69.8686 305.85C69.1856 306.041 68.4825 305.64 68.2916 304.957C68.1008 304.273 68.5026 303.57 69.1856 303.38C69.8686 303.189 70.5717 303.59 70.7626 304.273Z" fill="#263238"/>
<path d="M68.7529 244.067L69.7473 244.941L71.3645 241.224" stroke="#263238" stroke-width="2.00892" stroke-linecap="round" stroke-linejoin="round"/>
<path d="M66.333 270.372L67.3174 271.246L68.9446 267.53" stroke="#263238" stroke-width="2.00892" stroke-linecap="round" stroke-linejoin="round"/>
<path d="M72.8721 293.707L73.8665 294.581L75.4937 290.865" stroke="#263238" stroke-width="2.00892" stroke-linecap="round" stroke-linejoin="round"/>
<path d="M97.46 312.822L98.4544 313.696L100.072 309.979" stroke="#263238" stroke-width="2.00892" stroke-linecap="round" stroke-linejoin="round"/>
<path d="M159.501 162.942L75.9131 170.976L87.9879 296.607L171.575 288.573L159.501 162.942Z" fill="white" stroke="#263238" stroke-width="1.00446" stroke-linecap="round" stroke-linejoin="round"/>
<path d="M83.0283 178.634L104.775 176.545" stroke="#263238" stroke-width="2.00892" stroke-linecap="round" stroke-linejoin="round"/>
<path d="M83.4297 182.811L98.2153 181.395" stroke="#263238" stroke-width="2.00892" stroke-linecap="round" stroke-linejoin="round"/>
<path d="M89.6777 192.165L152.245 186.149" stroke="#263238" stroke-width="2.00892" stroke-linecap="round" stroke-linejoin="round"/>
<path d="M90.0791 196.346L152.647 190.329" stroke="#263238" stroke-width="2.00892" stroke-linecap="round" stroke-linejoin="round"/>
<path d="M90.541 201.215L143.908 196.082" stroke="#263238" stroke-width="2.00892" stroke-linecap="round" stroke-linejoin="round"/>
<path d="M96.3402 205.127L91.251 205.616L91.7401 210.705L96.8294 210.216L96.3402 205.127Z" stroke="#263238" stroke-width="1.00446" stroke-linecap="round" stroke-linejoin="round"/>
<path d="M105.565 204.237L100.476 204.726L100.965 209.816L106.054 209.327L105.565 204.237Z" stroke="#263238" stroke-width="1.00446" stroke-linecap="round" stroke-linejoin="round"/>
<path d="M114.789 203.349L109.7 203.838L110.189 208.927L115.279 208.438L114.789 203.349Z" stroke="#263238" stroke-width="1.00446" stroke-linecap="round" stroke-linejoin="round"/>
<path d="M124.003 202.461L118.914 202.95L119.403 208.039L124.492 207.55L124.003 202.461Z" stroke="#263238" stroke-width="1.00446" stroke-linecap="round" stroke-linejoin="round"/>
<path d="M86.3418 192.485C86.4122 193.188 85.8898 193.811 85.1867 193.882C84.4836 193.952 83.8608 193.43 83.7905 192.726C83.7202 192.023 84.2425 191.401 84.9456 191.33C85.6488 191.26 86.2715 191.782 86.3418 192.485Z" fill="#263238"/>
<path d="M92.0176 216.522L154.585 210.516" stroke="#263238" stroke-width="2.00892" stroke-linecap="round" stroke-linejoin="round"/>
<path d="M92.4199 220.703L154.988 214.687" stroke="#263238" stroke-width="2.00892" stroke-linecap="round" stroke-linejoin="round"/>
<path d="M92.8818 225.572L146.249 220.439" stroke="#263238" stroke-width="2.00892" stroke-linecap="round" stroke-linejoin="round"/>
<path d="M98.6791 229.482L93.5898 229.971L94.079 235.06L99.1682 234.571L98.6791 229.482Z" stroke="#263238" stroke-width="1.00446" stroke-linecap="round" stroke-linejoin="round"/>
<path d="M107.905 228.595L102.815 229.084L103.305 234.173L108.394 233.684L107.905 228.595Z" stroke="#263238" stroke-width="1.00446" stroke-linecap="round" stroke-linejoin="round"/>
<path d="M117.128 227.715L112.039 228.204L112.528 233.294L117.617 232.805L117.128 227.715Z" stroke="#263238" stroke-width="1.00446" stroke-linecap="round" stroke-linejoin="round"/>
<path d="M126.343 226.826L121.254 227.315L121.743 232.404L126.832 231.915L126.343 226.826Z" stroke="#263238" stroke-width="1.00446" stroke-linecap="round" stroke-linejoin="round"/>
<path d="M88.6827 216.844C88.753 217.547 88.2307 218.17 87.5275 218.24C86.8244 218.31 86.2017 217.788 86.1313 217.085C86.061 216.382 86.5834 215.759 87.2865 215.689C87.9896 215.618 88.6124 216.141 88.6827 216.844Z" fill="#263238"/>
<path d="M94.3584 240.88L156.926 234.873" stroke="#263238" stroke-width="2.00892" stroke-linecap="round" stroke-linejoin="round"/>
<path d="M94.7598 245.06L157.328 239.053" stroke="#263238" stroke-width="2.00892" stroke-linecap="round" stroke-linejoin="round"/>
<path d="M95.2217 249.929L148.589 244.806" stroke="#263238" stroke-width="2.00892" stroke-linecap="round" stroke-linejoin="round"/>
<path d="M101.019 253.834L95.9297 254.323L96.4188 259.413L101.508 258.924L101.019 253.834Z" stroke="#263238" stroke-width="1.00446" stroke-linecap="round" stroke-linejoin="round"/>
<path d="M110.244 252.955L105.154 253.444L105.643 258.533L110.733 258.044L110.244 252.955Z" stroke="#263238" stroke-width="1.00446" stroke-linecap="round" stroke-linejoin="round"/>
<path d="M119.468 252.067L114.379 252.556L114.868 257.645L119.957 257.156L119.468 252.067Z" stroke="#263238" stroke-width="1.00446" stroke-linecap="round" stroke-linejoin="round"/>
<path d="M128.694 251.189L123.604 251.678L124.094 256.767L129.183 256.278L128.694 251.189Z" stroke="#263238" stroke-width="1.00446" stroke-linecap="round" stroke-linejoin="round"/>
<path d="M91.0235 241.201C91.0938 241.904 90.5715 242.527 89.8684 242.597C89.1652 242.668 88.5425 242.145 88.4722 241.442C88.4019 240.739 88.9242 240.116 89.6273 240.046C90.3304 239.976 90.9532 240.498 91.0235 241.201Z" fill="#263238"/>
<path d="M96.7588 265.943L159.337 259.926" stroke="#263238" stroke-width="2.00892" stroke-linecap="round" stroke-linejoin="round"/>
<path d="M97.1602 270.109L159.738 264.103" stroke="#263238" stroke-width="2.00892" stroke-linecap="round" stroke-linejoin="round"/>
<path d="M97.6328 274.982L151 269.859" stroke="#263238" stroke-width="2.00892" stroke-linecap="round" stroke-linejoin="round"/>
<path d="M103.426 278.904L98.3369 279.393L98.8261 284.482L103.915 283.993L103.426 278.904Z" stroke="#263238" stroke-width="1.00446" stroke-linecap="round" stroke-linejoin="round"/>
<path d="M112.651 278.015L107.562 278.505L108.051 283.594L113.14 283.105L112.651 278.015Z" stroke="#263238" stroke-width="1.00446" stroke-linecap="round" stroke-linejoin="round"/>
<path d="M121.885 277.126L116.796 277.615L117.285 282.704L122.374 282.215L121.885 277.126Z" stroke="#263238" stroke-width="1.00446" stroke-linecap="round" stroke-linejoin="round"/>
<path d="M131.109 276.238L126.02 276.727L126.509 281.816L131.598 281.327L131.109 276.238Z" stroke="#263238" stroke-width="1.00446" stroke-linecap="round" stroke-linejoin="round"/>
<path d="M93.4336 266.264C93.504 266.967 92.9816 267.59 92.2785 267.66C91.5754 267.73 90.9526 267.208 90.8823 266.505C90.812 265.802 91.3343 265.179 92.0375 265.109C92.7406 265.038 93.3633 265.561 93.4336 266.264Z" fill="#263238"/>
<path d="M93.2637 207.473L94.0873 208.507L96.3273 205.132" stroke="#263238" stroke-width="2.00892" stroke-linecap="round" stroke-linejoin="round"/>
<path d="M114.016 229.751L114.839 230.786L117.089 227.411" stroke="#263238" stroke-width="2.00892" stroke-linecap="round" stroke-linejoin="round"/>
<path d="M107.185 255.506L108.008 256.541L110.258 253.166" stroke="#263238" stroke-width="2.00892" stroke-linecap="round" stroke-linejoin="round"/>
<path d="M127.907 278.599L128.731 279.633L130.971 276.258" stroke="#263238" stroke-width="2.00892" stroke-linecap="round" stroke-linejoin="round"/>
<path d="M261.71 113.417H209.82C206.003 113.417 202.909 116.511 202.909 120.328V164.906C202.909 168.723 206.003 171.817 209.82 171.817H232.822L246 187.707L242.696 171.817H261.71C265.527 171.817 268.621 168.723 268.621 164.906V120.328C268.621 116.511 265.527 113.417 261.71 113.417Z" fill="white" stroke="#263238" stroke-width="1.00446" stroke-linecap="round" stroke-linejoin="round"/>
<path d="M239.913 137.885V133.164L236.377 132.863C236.166 132.12 235.875 131.407 235.504 130.744L237.784 128.032L234.449 124.697L231.737 126.977C231.074 126.605 230.361 126.314 229.617 126.103L229.316 122.567H224.595L224.294 126.103C223.55 126.314 222.837 126.605 222.174 126.977L219.462 124.697L216.128 128.032L218.408 130.744C218.036 131.407 217.745 132.12 217.534 132.863L213.998 133.164V137.885L217.534 138.187C217.745 138.93 218.036 139.643 218.408 140.306L216.128 143.018L219.462 146.353L222.174 144.073C222.837 144.445 223.55 144.736 224.294 144.947L224.595 148.482H229.316L229.617 144.947C230.361 144.736 231.074 144.445 231.737 144.073L234.449 146.353L237.784 143.018L235.504 140.306C235.875 139.643 236.166 138.93 236.377 138.187L239.913 137.885ZM226.956 141.019C223.922 141.019 221.471 138.558 221.471 135.535C221.471 132.512 223.932 130.051 226.956 130.051C229.979 130.051 232.44 132.512 232.44 135.535C232.44 138.558 229.979 141.019 226.956 141.019Z" fill="#92E3A9"/>
<path d="M255.532 148.432V145.077L253.011 144.856C252.86 144.324 252.649 143.822 252.388 143.35L254.015 141.421L251.644 139.051L249.716 140.678C249.244 140.417 248.742 140.206 248.209 140.055L247.988 137.534H244.633L244.412 140.055C243.88 140.206 243.378 140.417 242.906 140.678L240.977 139.051L238.607 141.421L240.234 143.35C239.973 143.822 239.762 144.324 239.611 144.856L237.09 145.077V148.432L239.611 148.653C239.762 149.186 239.973 149.688 240.234 150.16L238.607 152.089L240.977 154.459L242.906 152.832C243.378 153.093 243.88 153.304 244.412 153.455L244.633 155.976H247.988L248.209 153.455C248.742 153.304 249.244 153.093 249.716 152.832L251.644 154.459L254.015 152.089L252.388 150.16C252.649 149.688 252.86 149.186 253.011 148.653L255.532 148.432ZM246.311 150.652C244.151 150.652 242.403 148.904 242.403 146.745C242.403 144.585 244.151 142.837 246.311 142.837C248.47 142.837 250.218 144.585 250.218 146.745C250.218 148.904 248.47 150.652 246.311 150.652Z" fill="#92E3A9"/>
<path d="M239.1 156.258V153.867L237.312 153.717C237.201 153.335 237.061 152.983 236.87 152.642L238.025 151.266L236.337 149.578L234.961 150.733C234.63 150.542 234.268 150.402 233.887 150.291L233.736 148.503H231.345L231.195 150.291C230.813 150.402 230.461 150.542 230.12 150.733L228.744 149.578L227.056 151.266L228.211 152.642C228.02 152.973 227.88 153.335 227.769 153.717L225.981 153.867V156.258L227.769 156.409C227.88 156.79 228.02 157.142 228.211 157.483L227.056 158.859L228.744 160.547L230.12 159.392C230.451 159.583 230.813 159.723 231.195 159.834L231.345 161.622H233.736L233.887 159.834C234.268 159.723 234.62 159.583 234.961 159.392L236.337 160.547L238.025 158.859L236.87 157.483C237.061 157.152 237.201 156.79 237.312 156.409L239.1 156.258ZM232.541 157.835C231.004 157.835 229.758 156.589 229.758 155.052C229.758 153.516 231.004 152.27 232.541 152.27C234.077 152.27 235.323 153.516 235.323 155.052C235.323 156.589 234.077 157.835 232.541 157.835Z" fill="#92E3A9"/>
<path d="M234.379 284.837L274.839 434.08H280.885L240.426 284.837H234.379Z" fill="#757575" stroke="#263238" stroke-width="1.00446" stroke-linecap="round" stroke-linejoin="round"/>
<path d="M325.493 391.771H248.803V398.019H325.493V391.771Z" fill="#999999" stroke="#263238" stroke-width="1.00446" stroke-linecap="round" stroke-linejoin="round"/>
<path d="M366.405 251.307L316.865 434.078H310.818L360.358 251.307C362.186 244.567 357.998 239.083 351.017 239.083H308.327C301.356 239.083 294.184 244.557 292.356 251.307L242.816 434.078H236.77L286.309 251.307C289.011 241.333 299.578 233.247 309.914 233.247H352.604C362.94 233.247 369.117 241.333 366.415 251.307H366.405Z" fill="#757575" stroke="#263238" stroke-width="1.00446" stroke-linecap="round" stroke-linejoin="round"/>
<path d="M367.199 251.369L354.905 296.75C353.89 300.497 349.922 303.53 346.045 303.53H275.894C272.017 303.53 269.696 300.497 270.711 296.75L283.015 251.369C284.03 247.632 287.998 244.589 291.875 244.589H362.016C365.893 244.589 368.214 247.632 367.199 251.369Z" fill="#92E3A9"/>
<mask id="mask2_135_1344" style="mask-type:luminance" maskUnits="userSpaceOnUse" x="270" y="244" width="98" height="60">
<path d="M367.199 251.369L354.905 296.75C353.89 300.497 349.922 303.53 346.045 303.53H275.894C272.017 303.53 269.696 300.497 270.711 296.75L283.015 251.369C284.03 247.632 287.998 244.589 291.875 244.589H362.016C365.893 244.589 368.214 247.632 367.199 251.369Z" fill="white"/>
</mask>
<g mask="url(#mask2_135_1344)">
<path opacity="0.2" d="M367.199 251.369L354.905 296.75C353.89 300.497 349.922 303.53 346.045 303.53H275.894C272.017 303.53 269.696 300.497 270.711 296.75L283.015 251.369C284.03 247.632 287.998 244.589 291.875 244.589H328.146C343.825 260.69 341.826 290.281 340.802 299.221C344.016 298.458 346.949 295.816 347.803 292.672L360.108 247.29C360.369 246.326 360.409 245.412 360.258 244.589H362.016C365.893 244.589 368.214 247.632 367.199 251.369Z" fill="black"/>
</g>
<path d="M367.199 251.369L354.905 296.75C353.89 300.497 349.922 303.53 346.045 303.53H275.894C272.017 303.53 269.696 300.497 270.711 296.75L283.015 251.369C284.03 247.632 287.998 244.589 291.875 244.589H362.016C365.893 244.589 368.214 247.632 367.199 251.369Z" stroke="#263238" stroke-width="1.00446" stroke-linecap="round" stroke-linejoin="round"/>
<path d="M325.955 349.464L348.887 434.079H354.944L332.002 349.464H325.955Z" fill="#757575" stroke="#263238" stroke-width="1.00446" stroke-linecap="round" stroke-linejoin="round"/>
<path d="M332.032 339.75V348.027H241.711V339.75C241.711 336.386 244.433 333.663 247.798 333.663H325.935C328.747 333.663 331.118 335.562 331.821 338.153C331.962 338.656 332.032 339.198 332.032 339.75Z" fill="#92E3A9"/>
<mask id="mask3_135_1344" style="mask-type:luminance" maskUnits="userSpaceOnUse" x="241" y="333" width="92" height="16">
<path d="M332.032 339.751V348.028H241.711V339.751C241.711 336.386 244.433 333.664 247.798 333.664H325.935C328.747 333.664 331.118 335.562 331.821 338.154C331.962 338.656 332.032 339.199 332.032 339.751Z" fill="white"/>
</mask>
<g mask="url(#mask3_135_1344)">
<path opacity="0.2" d="M331.821 338.154C328.898 341.589 323.655 345.085 314.635 348.028H241.711V339.751C241.711 336.386 244.433 333.664 247.798 333.664H325.935C328.747 333.664 331.118 335.562 331.821 338.154Z" fill="black"/>
</g>
<path d="M332.032 339.75V348.027H241.711V339.75C241.711 336.386 244.433 333.663 247.798 333.663H325.935C328.747 333.663 331.118 335.562 331.821 338.153C331.962 338.656 332.032 339.198 332.032 339.75Z" stroke="#263238" stroke-width="1.00446" stroke-linecap="round" stroke-linejoin="round"/>
<path d="M335.096 345.495H239.431C238.483 345.495 237.714 346.264 237.714 347.213V351.542C237.714 352.49 238.483 353.259 239.431 353.259H335.096C336.045 353.259 336.814 352.49 336.814 351.542V347.213C336.814 346.264 336.045 345.495 335.096 345.495Z" fill="#999999" stroke="#263238" stroke-width="1.00446" stroke-linecap="round" stroke-linejoin="round"/>
<path d="M238.78 345.776C234.451 350.186 255.434 419.473 255.434 419.473C253.144 421.462 249.769 422.406 246.575 422.828C241.954 423.441 237.725 422.959 237.725 422.959C237.725 422.959 207.652 350.015 215.929 331.915C224.205 313.814 275.563 305.527 275.563 305.527L277.753 300.103L304.321 296.367L308.71 328.901C308.71 328.901 304.351 329.323 297.792 330.167C280.204 332.427 246.735 337.68 238.78 345.776Z" fill="#263238"/>
<mask id="mask4_135_1344" style="mask-type:luminance" maskUnits="userSpaceOnUse" x="214" y="296" width="95" height="128">
<path d="M238.78 345.775C234.451 350.185 255.434 419.472 255.434 419.472C253.144 421.461 249.769 422.405 246.575 422.827C241.954 423.44 237.725 422.958 237.725 422.958C237.725 422.958 207.652 350.014 215.929 331.914C224.205 313.813 275.563 305.527 275.563 305.527L277.753 300.103L304.321 296.366L308.71 328.9C308.71 328.9 304.351 329.322 297.792 330.166C280.204 332.426 246.735 337.679 238.78 345.775Z" fill="white"/>
</mask>
<g mask="url(#mask4_135_1344)">
<path opacity="0.3" d="M255.433 419.473C253.143 421.462 249.768 422.406 246.574 422.828C240.738 401.131 225.882 343.234 231.517 336.153C238.458 327.414 272.81 319.469 272.81 319.469C272.951 315.009 284.994 310.991 284.994 310.991L297.791 330.166C280.203 332.426 246.735 337.68 238.779 345.776C234.45 350.185 255.433 419.473 255.433 419.473Z" fill="black"/>
</g>
<path d="M238.78 345.776C234.451 350.186 255.434 419.473 255.434 419.473C253.144 421.462 249.769 422.406 246.575 422.828C241.954 423.441 237.725 422.959 237.725 422.959C237.725 422.959 207.652 350.015 215.929 331.915C224.205 313.814 275.563 305.527 275.563 305.527L277.753 300.103L304.321 296.367L308.71 328.901C308.71 328.901 304.351 329.323 297.792 330.167C280.204 332.427 246.735 337.68 238.78 345.776Z" stroke="#263238" stroke-width="1.00446" stroke-linecap="round" stroke-linejoin="round"/>
<path d="M223.913 280.167C219.503 279.403 250.893 251.891 250.893 251.891L266.03 262.077C266.03 262.077 240.276 280.217 236.228 280.709C232.18 281.201 223.923 280.167 223.923 280.167H223.913Z" fill="white"/>
<mask id="mask5_135_1344" style="mask-type:luminance" maskUnits="userSpaceOnUse" x="223" y="251" width="44" height="30">
<path d="M223.913 280.166C219.503 279.403 250.893 251.891 250.893 251.891L266.03 262.076C266.03 262.076 240.276 280.217 236.228 280.709C232.18 281.201 223.923 280.166 223.923 280.166H223.913Z" fill="white"/>
</mask>
<g mask="url(#mask5_135_1344)">
<path opacity="0.2" d="M223.913 280.166C219.503 279.403 250.893 251.891 250.893 251.891L266.03 262.076C266.03 262.076 240.276 280.217 236.228 280.709C232.18 281.201 223.923 280.166 223.923 280.166H223.913Z" fill="black"/>
</g>
<path d="M223.913 280.167C219.503 279.403 250.893 251.891 250.893 251.891L266.03 262.077C266.03 262.077 240.276 280.217 236.228 280.709C232.18 281.201 223.923 280.167 223.923 280.167H223.913Z" stroke="#263238" stroke-width="1.00446" stroke-linecap="round" stroke-linejoin="round"/>
<path d="M229.447 268.585C229.447 268.585 236.026 270.223 238.035 271.629C240.044 273.035 239.482 277.987 239.482 277.987C239.482 277.987 230.693 275.476 229.447 268.595V268.585Z" fill="white" stroke="#263238" stroke-width="1.00446" stroke-linecap="round" stroke-linejoin="round"/>
<path d="M225.228 255.99L237.452 279.444H238.908L227.287 254.824L225.228 255.99Z" fill="#263238"/>
<path d="M236.257 272.945C236.257 272.945 228.543 267.46 226.655 267.46C224.766 267.46 219.111 274.14 219.111 277.485C219.111 280.83 231.436 282.688 233.857 279.845C235.052 278.429 232.672 275.014 232.672 275.014C232.672 275.014 236.257 278.73 237.282 279.283C238.307 279.835 240.195 279.112 240.195 279.112C240.195 279.112 237.624 275.014 236.247 272.945H236.257Z" fill="white" stroke="#263238" stroke-width="1.00446" stroke-linecap="round" stroke-linejoin="round"/>
<path d="M232.672 280.638C232.672 280.638 229.739 276.831 226.233 275.013" stroke="#263238" stroke-width="1.00446" stroke-linecap="round" stroke-linejoin="round"/>
<path d="M232.672 275.012C232.672 275.012 230 272.682 228.202 272.169" stroke="#263238" stroke-width="1.00446" stroke-linecap="round" stroke-linejoin="round"/>
<path d="M224.265 277.976C224.265 277.976 228.584 280.246 229.659 281.21" stroke="#263238" stroke-width="1.00446" stroke-linecap="round" stroke-linejoin="round"/>
<path d="M260.726 239.847C256.768 242.61 239.05 260.831 239.05 260.831C239.05 260.831 247.357 270.283 254.639 271.649L274.377 262.066L260.736 239.847H260.726Z" fill="#92E3A9" stroke="#263238" stroke-width="1.00446" stroke-linecap="round" stroke-linejoin="round"/>
<path opacity="0.4" d="M260.726 239.847C256.768 242.61 239.05 260.831 239.05 260.831C239.05 260.831 247.357 270.283 254.639 271.649L274.377 262.066L260.736 239.847H260.726Z" fill="white" stroke="#263238" stroke-width="1.00446" stroke-linecap="round" stroke-linejoin="round"/>
<path d="M251.194 412.123L259.541 434.08C259.541 434.08 260.927 439.735 235.695 437.947L221.783 436.752L251.184 412.113L251.194 412.123Z" fill="#92E3A9"/>
<mask id="mask6_135_1344" style="mask-type:luminance" maskUnits="userSpaceOnUse" x="221" y="412" width="39" height="27">
<path d="M251.194 412.123L259.541 434.081C259.541 434.081 260.927 439.736 235.695 437.948L221.783 436.752L251.184 412.113L251.194 412.123Z" fill="white"/>
</mask>
<g mask="url(#mask6_135_1344)">
<path opacity="0.3" d="M251.194 412.123L259.541 434.081C259.541 434.081 260.927 439.736 235.695 437.948L221.783 436.752L251.184 412.113L251.194 412.123Z" fill="black"/>
</g>
<path d="M251.194 412.123L259.541 434.08C259.541 434.08 260.927 439.735 235.695 437.947L221.783 436.752L251.184 412.113L251.194 412.123Z" stroke="#263238" stroke-width="1.00446" stroke-linecap="round" stroke-linejoin="round"/>
<path d="M248.01 422.648C248.01 422.648 249.798 431.196 248.01 437.554C248.01 437.554 221.382 441.723 215.425 440.136C209.469 438.549 205.853 435.576 205.672 434.079C205.672 434.079 205.883 430.001 211.849 428.806C217.806 427.61 229.688 426.817 234.379 420.067C239.07 413.317 248.01 422.648 248.01 422.648Z" fill="#92E3A9" stroke="#263238" stroke-width="1.00446" stroke-linecap="round" stroke-linejoin="round"/>
<path d="M283.155 299.259C291.663 287.125 330.777 301.73 330.777 301.73C330.777 301.73 334.513 330.94 318.934 338.725C303.355 346.509 280.895 346.097 274.828 352.415L250.139 425.319C250.139 425.319 241.269 429.025 228.372 423.189C228.372 423.189 244.052 368.135 248.652 348.588C253.202 329.252 282.673 316.114 282.673 316.114C282.673 316.114 280.192 313.312 279.278 310.007" fill="#263238"/>
<path d="M283.155 299.259C291.663 287.125 330.777 301.73 330.777 301.73C330.777 301.73 334.513 330.94 318.934 338.725C303.355 346.509 280.895 346.097 274.828 352.415L250.139 425.319C250.139 425.319 241.269 429.025 228.372 423.189C228.372 423.189 244.052 368.135 248.652 348.588C253.202 329.252 282.673 316.114 282.673 316.114C282.673 316.114 280.192 313.312 279.278 310.007" stroke="#263238" stroke-width="1.00446" stroke-linecap="round" stroke-linejoin="round"/>
<path d="M322.752 327.175C321.497 328.29 320.181 329.314 318.805 330.269" stroke="white" stroke-width="1.00446" stroke-linecap="round" stroke-linejoin="round"/>
<path d="M325.956 302.434C329.15 309.365 329.391 318.164 324.921 324.583" stroke="white" stroke-width="1.00446" stroke-linecap="round" stroke-linejoin="round"/>
<path d="M317.046 303.528C317.046 303.528 316.233 308.872 318.613 310.991C320.994 313.111 328.296 314.196 328.296 314.196" stroke="white" stroke-width="1.00446" stroke-linecap="round" stroke-linejoin="round"/>
<path d="M284.974 303.791C284.974 303.791 285.306 309.115 283.146 308.864C280.986 308.613 280.876 310.993 280.876 310.993" stroke="white" stroke-width="1.00446" stroke-linecap="round" stroke-linejoin="round"/>
<path d="M261.239 243.945C260.907 242.529 260.727 241.153 260.727 239.847C260.727 239.847 272.81 229.682 288.299 229.742C306.781 229.802 318.081 235.618 322.601 243.694C329.763 256.471 330.767 301.732 330.767 301.732C330.767 301.732 284.402 308.884 277.742 300.105C276.587 298.588 277.471 287.8 277.471 287.8C277.471 287.8 272.278 274.19 271.183 263.623C271.183 263.623 269.184 260.931 266.934 257.094C265.448 254.562 263.86 251.529 262.655 248.445" fill="#92E3A9"/>
<path d="M261.239 243.945C260.907 242.529 260.727 241.153 260.727 239.847C260.727 239.847 272.81 229.682 288.299 229.742C306.781 229.802 318.081 235.618 322.601 243.694C329.763 256.471 330.767 301.732 330.767 301.732C330.767 301.732 284.402 308.884 277.742 300.105C276.587 298.588 277.471 287.8 277.471 287.8C277.471 287.8 272.278 274.19 271.183 263.623C271.183 263.623 269.184 260.931 266.934 257.094C265.448 254.562 263.86 251.529 262.655 248.445" stroke="#263238" stroke-width="1.00446" stroke-linecap="round" stroke-linejoin="round"/>
<g opacity="0.6">
<path d="M261.239 243.945C260.907 242.529 260.727 241.153 260.727 239.847C260.727 239.847 272.81 229.682 288.299 229.742C306.781 229.802 318.081 235.618 322.601 243.694C329.763 256.471 330.767 301.732 330.767 301.732C330.767 301.732 284.402 308.884 277.742 300.105C276.587 298.588 277.471 287.8 277.471 287.8C277.471 287.8 272.278 274.19 271.183 263.623C271.183 263.623 269.184 260.931 266.934 257.094C265.448 254.562 263.86 251.529 262.655 248.445" fill="white"/>
<path d="M261.239 243.945C260.907 242.529 260.727 241.153 260.727 239.847C260.727 239.847 272.81 229.682 288.299 229.742C306.781 229.802 318.081 235.618 322.601 243.694C329.763 256.471 330.767 301.732 330.767 301.732C330.767 301.732 284.402 308.884 277.742 300.105C276.587 298.588 277.471 287.8 277.471 287.8C277.471 287.8 272.278 274.19 271.183 263.623C271.183 263.623 269.184 260.931 266.934 257.094C265.448 254.562 263.86 251.529 262.655 248.445" stroke="#263238" stroke-width="1.00446" stroke-linecap="round" stroke-linejoin="round"/>
</g>
<path d="M279.008 254.824C279.008 254.824 286.089 282.296 284.994 288.333C284.452 291.326 286.029 294.43 286.029 294.43C286.029 294.43 282.795 297.614 284.994 301.843" stroke="#263238" stroke-width="1.00446" stroke-linecap="round" stroke-linejoin="round"/>
<path d="M297.791 277.554C296.405 277.433 295.139 277.112 294.235 276.429L292.136 267.228C292.136 267.228 298.615 267.941 304.571 266.354L306.821 276.429C306.821 276.429 305.154 276.921 302.964 277.263" stroke="#263238" stroke-width="1.00446" stroke-linecap="round" stroke-linejoin="round"/>
<path d="M273.976 258.398C273.976 258.398 267.989 232.724 283.156 229.741C298.324 226.758 301.488 233.859 300.594 238.68C299.399 245.099 286.803 260.839 286.803 260.839L279.018 254.832L273.986 258.398H273.976Z" fill="#92E3A9" stroke="#263238" stroke-width="1.00446" stroke-linecap="round" stroke-linejoin="round"/>
<path opacity="0.4" d="M273.976 258.398C273.976 258.398 267.989 232.724 283.156 229.741C298.324 226.758 301.488 233.859 300.594 238.68C299.399 245.099 286.803 260.839 286.803 260.839L279.018 254.832L273.986 258.398H273.976Z" fill="white" stroke="#263238" stroke-width="1.00446" stroke-linecap="round" stroke-linejoin="round"/>
<path d="M254.027 337.652C254.027 337.652 263.841 326.311 286.029 317.743C286.029 317.743 280.284 315.985 279.008 313.595" stroke="white" stroke-width="1.00446" stroke-linecap="round" stroke-linejoin="round"/>
<path d="M242.475 372.404L233.485 405.009" stroke="white" stroke-width="1.00446" stroke-linecap="round" stroke-linejoin="round"/>
<path d="M311.854 278.438C311.854 278.438 315.891 285.229 332.415 284.596C332.415 284.596 327.875 279.423 321.125 277.595C314.365 275.757 311.854 278.438 311.854 278.438Z" fill="#92E3A9" stroke="#263238" stroke-width="1.00446" stroke-linecap="round" stroke-linejoin="round"/>
<path d="M247.669 281.171C247.669 281.171 251.506 275.225 255.032 274.029C258.557 272.834 268.873 272.734 270.46 272.693C272.047 272.653 300.443 279.865 313.752 284.295L312.597 262.076L330.497 263.483C330.497 263.483 329.773 290.613 326.991 297.785C324.209 304.957 320.221 303.219 313.421 300.286C286.672 288.765 271.003 280.729 269.546 281.161C268.09 281.593 247.679 281.161 247.679 281.161L247.669 281.171Z" fill="white" stroke="#263238" stroke-width="1.00446" stroke-linecap="round" stroke-linejoin="round"/>
<path d="M308.126 249.147C307.654 251.086 307.484 253.054 307.684 254.792C308.478 261.743 311.853 278.437 311.853 278.437C311.853 278.437 328.547 280.818 332.414 284.594C332.414 284.594 335.166 262.466 329.562 251.277C323.967 240.087 318.161 238.821 318.161 238.821C314.495 237.917 311.17 241.332 309.271 245.722" fill="#92E3A9"/>
<path d="M308.126 249.147C307.654 251.086 307.484 253.054 307.684 254.792C308.478 261.743 311.853 278.437 311.853 278.437C311.853 278.437 328.547 280.818 332.414 284.594C332.414 284.594 335.166 262.466 329.562 251.277C323.967 240.087 318.161 238.821 318.161 238.821C314.495 237.917 311.17 241.332 309.271 245.722" stroke="#263238" stroke-width="1.00446" stroke-linecap="round" stroke-linejoin="round"/>
<g opacity="0.4">
<path d="M308.126 249.147C307.654 251.085 307.484 253.054 307.684 254.792C308.478 261.743 311.853 278.437 311.853 278.437C311.853 278.437 328.547 280.817 332.414 284.594C332.414 284.594 335.166 262.466 329.562 251.276C323.967 240.087 318.161 238.821 318.161 238.821C314.495 237.917 311.17 241.332 309.271 245.722" fill="white"/>
<path d="M308.126 249.147C307.654 251.085 307.484 253.054 307.684 254.792C308.478 261.743 311.853 278.437 311.853 278.437C311.853 278.437 328.547 280.817 332.414 284.594C332.414 284.594 335.166 262.466 329.562 251.276C323.967 240.087 318.161 238.821 318.161 238.821C314.495 237.917 311.17 241.332 309.271 245.722" stroke="#263238" stroke-width="1.00446" stroke-linecap="round" stroke-linejoin="round"/>
</g>
<path d="M259.099 257.746C259.099 257.746 262.373 260.709 267.637 262.075" stroke="#263238" stroke-width="1.00446" stroke-linecap="round" stroke-linejoin="round"/>
<path d="M311.854 257.746C311.854 257.746 317.92 269.137 325.494 271.658" stroke="#263238" stroke-width="1.00446" stroke-linecap="round" stroke-linejoin="round"/>
<path d="M272.81 345.495C272.81 345.495 273.925 346.338 274.366 349.382" stroke="white" stroke-width="1.00446" stroke-linecap="round" stroke-linejoin="round"/>
<path d="M268.672 349.373C268.672 349.373 271.746 349.564 273.584 352.206" stroke="white" stroke-width="1.00446" stroke-linecap="round" stroke-linejoin="round"/>
<path d="M235.464 337.651C235.464 337.651 238.678 339.278 237.985 343.888" stroke="white" stroke-width="1.00446" stroke-linecap="round" stroke-linejoin="round"/>
<path d="M232.069 341.618C232.069 341.618 236.459 344.22 236.77 346.56" stroke="white" stroke-width="1.00446" stroke-linecap="round" stroke-linejoin="round"/>
<path d="M282.935 313.514C282.935 313.514 292.708 314.89 294.898 313.514" stroke="white" stroke-width="1.00446" stroke-linecap="round" stroke-linejoin="round"/>
<path d="M279.008 253.718C279.008 253.718 277.763 250.754 277.984 246.254C278.024 245.441 278.104 244.587 278.255 243.693L276.558 241.001L274.378 237.536L276.899 227.441C276.899 227.441 292.95 230.535 294.176 235.015C295.391 239.515 279.008 253.718 279.008 253.718Z" fill="white"/>
<mask id="mask7_135_1344" style="mask-type:luminance" maskUnits="userSpaceOnUse" x="274" y="227" width="21" height="27">
<path d="M279.008 253.718C279.008 253.718 277.763 250.755 277.984 246.255C278.024 245.441 278.104 244.587 278.255 243.693L276.558 241.001L274.378 237.536L276.899 227.441C276.899 227.441 292.95 230.535 294.176 235.015C295.391 239.515 279.008 253.718 279.008 253.718Z" fill="white"/>
</mask>
<g mask="url(#mask7_135_1344)">
<path opacity="0.2" d="M277.983 246.255C278.023 245.442 278.104 244.588 278.254 243.694L276.557 241.002C279.339 240.45 282.382 239.214 284.401 236.603C284.401 236.603 284.934 243.563 277.983 246.255Z" fill="black"/>
</g>
<path d="M279.008 253.718C279.008 253.718 277.763 250.754 277.984 246.254C278.024 245.441 278.104 244.587 278.255 243.693L276.558 241.001L274.378 237.536L276.899 227.441C276.899 227.441 292.95 230.535 294.176 235.015C295.391 239.515 279.008 253.718 279.008 253.718Z" stroke="#263238" stroke-width="1.00446" stroke-linecap="round" stroke-linejoin="round"/>
<path d="M289.093 228.335C294.065 215.237 290.78 193.049 266.663 197.308C252.47 199.819 250.823 216.915 255.554 224.498C260.295 232.082 255.263 232.333 262.364 237.968C265.237 240.248 267.567 244.115 271.003 244.356C275.081 244.648 280.324 240.77 284.231 236.602" fill="white"/>
<path d="M289.093 228.335C294.065 215.237 290.78 193.049 266.663 197.308C252.47 199.819 250.823 216.915 255.554 224.498C260.295 232.082 255.263 232.333 262.364 237.968C265.237 240.248 267.567 244.115 271.003 244.356C275.081 244.648 280.324 240.77 284.231 236.602" stroke="#263238" stroke-width="1.00446" stroke-linecap="round" stroke-linejoin="round"/>
<path d="M265.337 224.508C265.337 224.508 268.893 221.283 273.111 222.619" stroke="#263238" stroke-width="1.00446" stroke-linecap="round" stroke-linejoin="round"/>
<path d="M258.668 224.509C258.668 224.509 257.462 221.948 254.067 221.395" stroke="#263238" stroke-width="1.00446" stroke-linecap="round" stroke-linejoin="round"/>
<path d="M261.018 229.169C261.018 229.169 260.505 231.78 259.842 234.412C259.19 236.963 264.061 235.607 263.84 235.195" fill="white"/>
<path d="M261.018 229.169C261.018 229.169 260.505 231.78 259.842 234.412C259.19 236.963 264.061 235.607 263.84 235.195" stroke="#263238" stroke-width="1.00446" stroke-linecap="round" stroke-linejoin="round"/>
<path d="M266.382 238.53C266.382 238.53 269.496 237.787 271.675 235.065" stroke="#263238" stroke-width="1.00446" stroke-linecap="round" stroke-linejoin="round"/>
<path d="M270.279 227.812C270.48 228.545 270.178 229.259 269.606 229.419C269.033 229.57 268.411 229.108 268.21 228.375C268.009 227.641 268.31 226.928 268.883 226.767C269.455 226.617 270.078 227.079 270.279 227.812Z" fill="#263238"/>
<path d="M259.532 227.591C259.733 228.324 259.582 228.997 259.2 229.098C258.818 229.198 258.346 228.696 258.156 227.963C257.955 227.229 258.105 226.556 258.487 226.456C258.869 226.356 259.341 226.858 259.532 227.591Z" fill="#263238"/>
<path d="M274.226 211.058C274.226 211.058 270.489 220.831 261.248 220.61C261.248 220.61 264.452 218.17 265.336 215.839C265.336 215.839 258.225 222.88 251.113 219.305C244.002 215.729 247.457 199.115 258.396 192.526C269.334 185.936 280.443 187.714 284.22 193.992C284.22 193.992 291.854 193.289 295.219 204.509C298.222 214.533 293.421 229.771 288.7 229.952C281.398 230.223 279.931 222.298 279.931 222.298C279.931 222.298 275.552 218.401 274.226 211.068V211.058Z" fill="#263238" stroke="#263238" stroke-width="1.00446" stroke-linecap="round" stroke-linejoin="round"/>
<path d="M282.223 228.385C282.223 228.385 282.002 219.164 287.225 220.279C292.448 221.394 288.672 232.051 284.724 231.94" fill="white"/>
<path d="M282.223 228.385C282.223 228.385 282.002 219.164 287.225 220.279C292.448 221.394 288.672 232.051 284.724 231.94" stroke="#263238" stroke-width="1.00446" stroke-linecap="round" stroke-linejoin="round"/>
<path d="M266.01 280.165H185.02C184.116 280.165 183.383 280.898 183.383 281.803V284.625C183.383 285.529 184.116 286.262 185.02 286.262H266.01C266.914 286.262 267.647 285.529 267.647 284.625V281.803C267.647 280.898 266.914 280.165 266.01 280.165Z" fill="#92E3A9" stroke="#263238" stroke-width="1.00446" stroke-linecap="round" stroke-linejoin="round"/>
<path d="M65.4898 402.853H31.3281L34.904 434.081H61.9139L65.4898 402.853Z" fill="#263238" stroke="#263238" stroke-width="1.00446" stroke-linecap="round" stroke-linejoin="round"/>
<path d="M69.537 381.116C69.537 381.116 54.6208 382.292 53.998 393.3C53.998 393.3 69.1051 400.261 69.537 381.116Z" fill="#92E3A9" stroke="#263238" stroke-width="1.00446" stroke-linecap="round" stroke-linejoin="round"/>
<path d="M40.0158 383.847C40.0158 383.847 31.6788 372.577 18.209 378.352C18.209 378.352 26.4355 391.973 40.0158 383.847Z" fill="#92E3A9" stroke="#263238" stroke-width="1.00446" stroke-linecap="round" stroke-linejoin="round"/>
<path d="M19.3536 348.268C19.3536 348.268 16.953 369.944 36.6906 363.978C36.6906 363.978 30.4228 348.037 19.3536 348.268Z" fill="#92E3A9" stroke="#263238" stroke-width="1.00446" stroke-linecap="round" stroke-linejoin="round"/>
<path d="M43.5811 336.196C43.5811 336.196 27.9718 344.614 39.4528 357.38C39.4528 357.38 50.4014 348.26 43.5811 336.196Z" fill="#92E3A9" stroke="#263238" stroke-width="1.00446" stroke-linecap="round" stroke-linejoin="round"/>
<path d="M62.7866 355.571C62.7866 355.571 45.8213 353.864 45.8213 369.564C45.8213 369.564 62.7866 370.237 62.7866 355.571Z" fill="#92E3A9" stroke="#263238" stroke-width="1.00446" stroke-linecap="round" stroke-linejoin="round"/>
<path d="M46.7854 415.719C46.7854 415.719 54.5197 399.487 47.0968 382.954C39.6738 366.421 37.1627 352.499 41.0399 342.675" stroke="#263238" stroke-width="1.00446" stroke-linecap="round" stroke-linejoin="round"/>
<path d="M57.2116 359.792C57.2116 359.792 47.0364 363.829 43.5811 374.306" stroke="#263238" stroke-width="1.00446" stroke-linecap="round" stroke-linejoin="round"/>
<path d="M24.7178 356.938C24.7178 356.938 30.5939 364.943 40.5581 364.079" stroke="#263238" stroke-width="1.00446" stroke-linecap="round" stroke-linejoin="round"/>
<path d="M24.7178 380.662C24.7178 380.662 41.0001 385.353 47.4688 383.816" stroke="#263238" stroke-width="1.00446" stroke-linecap="round" stroke-linejoin="round"/>
<path d="M64.6651 386.068C64.6651 386.068 57.3928 394.053 50.0703 393.933" stroke="#263238" stroke-width="1.00446" stroke-linecap="round" stroke-linejoin="round"/>
<path d="M29.8604 406.568H66.9551V402.158H29.8604V406.568Z" fill="#263238" stroke="#263238" stroke-width="1.00446" stroke-linecap="round" stroke-linejoin="round"/>
<path d="M336.14 373.831C336.14 373.831 323.694 381.184 314.855 395.949C306.016 410.715 299.005 431.487 309.893 434.079L320.249 433.687L340.178 426.847L338.088 422.799C338.088 422.799 320.631 432.05 317.648 432.05C314.664 432.05 310.787 432.793 309.15 431.598C307.513 430.402 314.885 403.553 330.665 394.603C346.445 385.654 336.15 373.831 336.15 373.831H336.14Z" fill="#92E3A9"/>
<mask id="mask8_135_1344" style="mask-type:luminance" maskUnits="userSpaceOnUse" x="304" y="373" width="37" height="62">
<path d="M336.14 373.832C336.14 373.832 323.694 381.185 314.855 395.95C306.016 410.716 299.005 431.488 309.893 434.079L320.249 433.688L340.178 426.847L338.088 422.799C338.088 422.799 320.631 432.05 317.648 432.05C314.664 432.05 310.787 432.794 309.15 431.598C307.513 430.403 314.885 403.554 330.665 394.604C346.445 385.654 336.15 373.832 336.15 373.832H336.14Z" fill="white"/>
</mask>
<g mask="url(#mask8_135_1344)">
<path opacity="0.5" d="M336.14 373.832C336.14 373.832 323.694 381.185 314.855 395.95C306.016 410.716 299.005 431.488 309.893 434.079L320.249 433.688L340.178 426.847L338.088 422.799C338.088 422.799 320.631 432.05 317.648 432.05C314.664 432.05 310.787 432.794 309.15 431.598C307.513 430.403 314.885 403.554 330.665 394.604C346.445 385.654 336.15 373.832 336.15 373.832H336.14Z" fill="black"/>
</g>
<path d="M336.14 373.831C336.14 373.831 323.694 381.184 314.855 395.949C306.016 410.715 299.005 431.487 309.893 434.079L320.249 433.687L340.178 426.847L338.088 422.799C338.088 422.799 320.631 432.05 317.648 432.05C314.664 432.05 310.787 432.793 309.15 431.598C307.513 430.402 314.885 403.553 330.665 394.603C346.445 385.654 336.15 373.831 336.15 373.831H336.14Z" stroke="#263238" stroke-width="1.00446" stroke-linecap="round" stroke-linejoin="round"/>
<path d="M347.471 364.178C347.471 364.178 347.471 359.849 354.03 359.256C360.589 358.663 361.523 364.981 361.523 364.981H359.263C359.263 364.981 359.314 361.195 354.492 360.903C349.671 360.612 349.852 364.981 349.852 364.981L347.461 364.178H347.471Z" fill="#92E3A9" stroke="#263238" stroke-width="1.00446" stroke-linecap="round" stroke-linejoin="round"/>
<path d="M337.777 434.078C323.905 434.078 326.537 371.872 328.134 368.768C329.731 365.664 369.98 364.148 373.947 365.453C377.915 366.759 393.825 428.764 385.046 433.686L337.787 434.078H337.777Z" fill="#92E3A9"/>
<mask id="mask9_135_1344" style="mask-type:luminance" maskUnits="userSpaceOnUse" x="326" y="364" width="62" height="71">
<path d="M337.777 434.078C323.905 434.078 326.537 371.872 328.134 368.768C329.731 365.664 369.98 364.148 373.947 365.453C377.915 366.759 393.825 428.764 385.046 433.686L337.787 434.078H337.777Z" fill="white"/>
</mask>
<g mask="url(#mask9_135_1344)">
<path opacity="0.2" d="M337.777 434.078C323.905 434.078 326.537 371.872 328.134 368.768C329.731 365.664 369.98 364.148 373.947 365.453C377.915 366.759 393.825 428.764 385.046 433.686L337.787 434.078H337.777Z" fill="black"/>
</g>
<path d="M337.777 434.078C323.905 434.078 326.537 371.872 328.134 368.768C329.731 365.664 369.98 364.148 373.947 365.453C377.915 366.759 393.825 428.765 385.046 433.686L337.787 434.078H337.777Z" stroke="#263238" stroke-width="1.00446" stroke-linecap="round" stroke-linejoin="round"/>
<path d="M328.134 368.769C333.156 369.844 336.049 390.204 342.809 395.387C349.569 400.571 381.44 399.456 385.046 395.387C388.652 391.319 381.601 368.468 376.478 364.983C371.346 361.487 367.709 364.882 353.306 363.285C331.931 360.904 328.144 368.769 328.144 368.769H328.134Z" fill="#92E3A9" stroke="#263238" stroke-width="1.00446" stroke-linecap="round" stroke-linejoin="round"/>
<path d="M364.708 380.472L370.614 385.293C370.965 385.575 371.006 386.107 370.694 386.438L366.104 391.4C365.802 391.722 365.3 391.742 364.989 391.441L359.123 385.886C358.791 385.575 358.801 385.052 359.123 384.741L363.673 380.512C363.964 380.241 364.396 380.231 364.708 380.482V380.472Z" fill="#92E3A9"/>
<mask id="mask10_135_1344" style="mask-type:luminance" maskUnits="userSpaceOnUse" x="358" y="380" width="13" height="12">
<path d="M364.708 380.473L370.614 385.294C370.965 385.575 371.006 386.108 370.694 386.439L366.104 391.401C365.802 391.723 365.3 391.743 364.989 391.441L359.123 385.887C358.791 385.575 358.801 385.053 359.123 384.742L363.673 380.513C363.964 380.242 364.396 380.232 364.708 380.483V380.473Z" fill="white"/>
</mask>
<g mask="url(#mask10_135_1344)">
<path opacity="0.2" d="M364.708 380.473L370.614 385.294C370.965 385.575 371.006 386.108 370.694 386.439L366.104 391.401C365.802 391.723 365.3 391.743 364.989 391.441L359.123 385.887C358.791 385.575 358.801 385.053 359.123 384.742L363.673 380.513C363.964 380.242 364.396 380.232 364.708 380.483V380.473Z" fill="black"/>
</g>
<path d="M364.708 380.472L370.614 385.293C370.965 385.575 371.006 386.107 370.694 386.438L366.104 391.4C365.802 391.722 365.3 391.742 364.989 391.441L359.123 385.886C358.791 385.575 358.801 385.052 359.123 384.741L363.673 380.512C363.964 380.241 364.396 380.231 364.708 380.482V380.472Z" stroke="#263238" stroke-width="1.00446" stroke-linecap="round" stroke-linejoin="round"/>
<path d="M345.241 405.793C345.241 405.793 371.939 407.992 385.048 404.597C385.048 404.597 387.609 406.385 388.804 409.971C390 413.547 392.491 425.781 385.048 428.915C377.615 432.049 350.906 431.446 347.33 427.871C343.754 424.295 345.241 405.793 345.241 405.793Z" fill="#92E3A9"/>
<mask id="mask11_135_1344" style="mask-type:luminance" maskUnits="userSpaceOnUse" x="344" y="404" width="47" height="27">
<path d="M345.241 405.792C345.241 405.792 371.939 407.992 385.048 404.597C385.048 404.597 387.609 406.385 388.804 409.97C390 413.546 392.491 425.781 385.048 428.915C377.615 432.048 350.906 431.446 347.33 427.87C343.754 424.294 345.241 405.792 345.241 405.792Z" fill="white"/>
</mask>
<g mask="url(#mask11_135_1344)">
<path opacity="0.4" d="M345.241 405.792C345.241 405.792 371.939 407.992 385.048 404.597C385.048 404.597 387.609 406.385 388.804 409.97C390 413.546 392.491 425.781 385.048 428.915C377.615 432.048 350.906 431.446 347.33 427.87C343.754 424.294 345.241 405.792 345.241 405.792Z" fill="black"/>
</g>
<path d="M345.241 405.793C345.241 405.793 371.939 407.992 385.048 404.597C385.048 404.597 387.609 406.385 388.804 409.971C390 413.547 392.491 425.781 385.048 428.915C377.615 432.049 350.906 431.446 347.33 427.871C343.754 424.295 345.241 405.793 345.241 405.793Z" stroke="#263238" stroke-width="1.00446" stroke-linecap="round" stroke-linejoin="round"/>
<path d="M345.241 405.793C345.241 405.793 348.375 414.24 350.013 415.536C351.65 416.832 386.334 416.832 390.171 413.698C394.018 410.564 388.745 404.899 385.038 404.598C385.038 404.598 360.75 407.43 345.231 405.793H345.241Z" fill="#92E3A9" stroke="#263238" stroke-width="1.00446" stroke-linecap="round" stroke-linejoin="round"/>
<path d="M334.051 404.005C334.051 404.005 334.945 421.753 336.733 425.781C336.733 425.781 332.655 428.172 328.125 425.781C323.605 423.391 324.348 408.103 325.242 408.143C326.136 408.183 334.041 404.005 334.041 404.005H334.051Z" fill="#92E3A9"/>
<mask id="mask12_135_1344" style="mask-type:luminance" maskUnits="userSpaceOnUse" x="324" y="404" width="13" height="23">
<path d="M334.051 404.004C334.051 404.004 334.945 421.753 336.733 425.781C336.733 425.781 332.655 428.171 328.125 425.781C323.605 423.39 324.348 408.102 325.242 408.142C326.136 408.182 334.041 404.004 334.041 404.004H334.051Z" fill="white"/>
</mask>
<g mask="url(#mask12_135_1344)">
<path opacity="0.4" d="M334.051 404.004C334.051 404.004 334.945 421.753 336.733 425.781C336.733 425.781 332.655 428.171 328.125 425.781C323.605 423.39 324.348 408.102 325.242 408.142C326.136 408.182 334.041 404.004 334.041 404.004H334.051Z" fill="black"/>
</g>
<path d="M334.051 404.005C334.051 404.005 334.945 421.753 336.733 425.781C336.733 425.781 332.655 428.172 328.125 425.781C323.605 423.391 324.348 408.103 325.242 408.143C326.136 408.183 334.041 404.005 334.041 404.005H334.051Z" stroke="#263238" stroke-width="1.00446" stroke-linecap="round" stroke-linejoin="round"/>
<path d="M334.052 404.005L327.332 405.351C327.332 405.351 320.923 410.273 323.756 411.91C326.588 413.547 333.901 409.519 334.052 404.005Z" fill="#92E3A9" stroke="#263238" stroke-width="1.00446" stroke-linecap="round" stroke-linejoin="round"/>
</g>
<defs>
<clipPath id="clip0_135_1344">
<rect width="407.378" height="440.274" fill="white" transform="translate(0.621094 0.725586)"/>
</clipPath>
</defs>
</svg>
