<svg width="100" height="74" viewBox="0 0 100 74" fill="none" xmlns="http://www.w3.org/2000/svg">
<g clip-path="url(#clip0_104_1695)">
<path d="M23.7 73.8999C10.6 73.8999 0 63.1999 0 50.0999C0 36.9999 10.6 26.3999 23.7 26.3999C36.8 26.3999 47.4 36.9999 47.4 50.0999C47.4 63.1999 36.8 73.8999 23.7 73.8999ZM23.7 28.3999C11.7 28.3999 1.9 38.1999 1.9 50.1999C1.9 62.1999 11.7 71.9999 23.7 71.9999C35.7 71.9999 45.5 62.1999 45.5 50.1999C45.5 38.1999 35.7 28.3999 23.7 28.3999Z" fill="#D2D2D2"/>
<path d="M23.7 68.6001C13.5 68.6001 5.19995 60.3001 5.19995 50.1001C5.19995 39.9001 13.5 31.6001 23.7 31.6001C33.9 31.6001 42.2 39.9001 42.2 50.1001C42.2 60.3001 33.9 68.6001 23.7 68.6001ZM23.7 33.6001C14.6 33.6001 7.09995 41.0001 7.09995 50.2001C7.09995 59.4001 14.5 66.8001 23.7 66.8001C32.9 66.8001 40.2999 59.4001 40.2999 50.2001C40.2999 41.0001 32.8 33.6001 23.7 33.6001Z" fill="#D2D2D2"/>
<path d="M10.2 51.1001H6.19995C5.69995 51.1001 5.19995 50.7001 5.19995 50.1001C5.19995 49.5001 5.59995 49.1001 6.19995 49.1001H10.2C10.7 49.1001 11.2 49.5001 11.2 50.1001C11.2 50.7001 10.7 51.1001 10.2 51.1001ZM41.2 51.1001H37.2C36.7 51.1001 36.2 50.7001 36.2 50.1001C36.2 49.5001 36.6 49.1001 37.2 49.1001H41.2C41.7 49.1001 42.2 49.5001 42.2 50.1001C42.2 50.7001 41.7999 51.1001 41.2 51.1001ZM23.7 68.6001C23.2 68.6001 22.7 68.2001 22.7 67.6001V63.6001C22.7 63.1001 23.1 62.6001 23.7 62.6001C24.3 62.6001 24.7 63.0001 24.7 63.6001V67.6001C24.7 68.2001 24.2 68.6001 23.7 68.6001ZM23.7 37.6001C23.2 37.6001 22.7 37.2001 22.7 36.6001V32.6001C22.7 32.1001 23.1 31.6001 23.7 31.6001C24.3 31.6001 24.7 32.0001 24.7 32.6001V36.6001C24.7 37.2001 24.2 37.6001 23.7 37.6001ZM23.7 51.1001C23.6 51.1001 23.4 51.1001 23.2999 51.0001L15.7 47.3001C15.2 47.1001 15 46.5001 15.3 46.0001C15.5 45.5001 16.1 45.3001 16.6 45.6001L24.2 49.3001C24.7 49.5001 24.9 50.1001 24.6 50.6001C24.4 50.9001 24.1 51.1001 23.7 51.1001Z" fill="#D2D2D2"/>
<path d="M23.7001 51.1001C23.5001 51.1001 23.3001 51.0001 23.2001 50.9001C22.8001 50.6001 22.6001 50.0001 22.9001 49.6001L30.2001 38.7001C30.5001 38.3001 31.1001 38.1001 31.5001 38.4001C31.9001 38.7001 32.1001 39.3001 31.8001 39.7001L24.5001 50.6001C24.3001 51.0001 24.0001 51.1001 23.7001 51.1001ZM28.4001 28.4001C27.9001 28.4001 27.4001 28.0001 27.4001 27.4001V13.6001C27.4001 9.8001 30.5001 6.7001 34.4001 6.7001H43.7001C44.2001 6.7001 44.7001 7.1001 44.7001 7.7001C44.7001 8.3001 44.3001 8.7001 43.7001 8.7001H34.4001C31.6001 8.7001 29.3001 10.9001 29.3001 13.7001V27.6001C29.4001 28.0001 28.9001 28.4001 28.4001 28.4001ZM93.0001 71.9001H33.3001C32.8001 71.9001 32.3001 71.5001 32.3001 70.9001C32.3001 70.4001 32.7001 69.9001 33.3001 69.9001H93.0001C95.8001 69.9001 98.1001 67.7001 98.1001 64.9001V13.6001C98.1001 10.9001 95.8001 8.6001 93.0001 8.6001H83.7001C83.2001 8.6001 82.7001 8.2001 82.7001 7.6001C82.7001 7.0001 83.1001 6.6001 83.7001 6.6001H93.0001C96.9001 6.6001 100 9.7001 100 13.5001V65.0001C100 68.8001 96.9001 71.9001 93.0001 71.9001ZM79.6001 8.6001H47.9001C47.4001 8.6001 46.9001 8.2001 46.9001 7.6001C46.9001 7.0001 47.3001 6.6001 47.9001 6.6001H79.6001C80.1001 6.6001 80.6001 7.0001 80.6001 7.6001C80.6001 8.2001 80.1001 8.6001 79.6001 8.6001Z" fill="#D2D2D2"/>
<path d="M98.9999 22.6H28.3999C27.8999 22.6 27.3999 22.2 27.3999 21.6C27.3999 21 27.7999 20.6 28.3999 20.6H98.9999C99.4999 20.6 99.9999 21 99.9999 21.6C99.9999 22.2 99.5999 22.6 98.9999 22.6ZM45.7999 15.3C44.0999 15.3 42.7999 13.9 42.7999 12.3V3C42.7999 1.3 44.1999 0 45.7999 0C47.3999 0 48.7999 1.4 48.7999 3V12.3C48.7999 14 47.4999 15.3 45.7999 15.3ZM45.7999 1.9C45.1999 1.9 44.6999 2.4 44.6999 3V12.3C44.6999 12.9 45.1999 13.4 45.7999 13.4C46.3999 13.4 46.8999 12.9 46.8999 12.3V3C46.8999 2.4 46.3999 1.9 45.7999 1.9ZM81.5999 15.3C79.8999 15.3 78.5999 13.9 78.5999 12.3V3C78.5999 1.3 79.9999 0 81.5999 0C83.2999 0 84.5999 1.4 84.5999 3V12.3C84.5999 14 83.2999 15.3 81.5999 15.3ZM81.5999 1.9C80.9999 1.9 80.4999 2.4 80.4999 3V12.3C80.4999 12.9 80.9999 13.4 81.5999 13.4C82.1999 13.4 82.6999 12.9 82.6999 12.3V3C82.6999 2.4 82.1999 1.9 81.5999 1.9ZM60.3999 45.1H51.5999C50.4999 45.1 49.5999 44.2 49.5999 43.1V39.8C49.5999 38.7 50.4999 37.8 51.5999 37.8H60.3999C61.4999 37.8 62.3999 38.7 62.3999 39.8V43.1C62.3999 44.2 61.4999 45.1 60.3999 45.1ZM75.8999 45.1H67.0999C65.9999 45.1 65.0999 44.2 65.0999 43.1V39.8C65.0999 38.7 65.9999 37.8 67.0999 37.8H75.8999C76.9999 37.8 77.8999 38.7 77.8999 39.8V43.1C77.8999 44.2 76.9999 45.1 75.8999 45.1ZM91.3999 45.1H82.5999C81.4999 45.1 80.5999 44.2 80.5999 43.1V39.8C80.5999 38.7 81.4999 37.8 82.5999 37.8H91.3999C92.4999 37.8 93.3999 38.7 93.3999 39.8V43.1C93.3999 44.2 92.4999 45.1 91.3999 45.1ZM75.8999 35.5H67.0999C65.9999 35.5 65.0999 34.6 65.0999 33.5V30.2C65.0999 29.1 65.9999 28.2 67.0999 28.2H75.8999C76.9999 28.2 77.8999 29.1 77.8999 30.2V33.5C77.8999 34.6 76.9999 35.5 75.8999 35.5ZM91.3999 35.5H82.5999C81.4999 35.5 80.5999 34.6 80.5999 33.5V30.2C80.5999 29.1 81.4999 28.2 82.5999 28.2H91.3999C92.4999 28.2 93.3999 29.1 93.3999 30.2V33.5C93.3999 34.6 92.4999 35.5 91.3999 35.5ZM60.3999 54.8H51.5999C50.4999 54.8 49.5999 53.9 49.5999 52.8V49.5C49.5999 48.4 50.4999 47.5 51.5999 47.5H60.3999C61.4999 47.5 62.3999 48.4 62.3999 49.5V52.8C62.3999 53.9 61.4999 54.8 60.3999 54.8ZM75.8999 54.8H67.0999C65.9999 54.8 65.0999 53.9 65.0999 52.8V49.5C65.0999 48.4 65.9999 47.5 67.0999 47.5H75.8999C76.9999 47.5 77.8999 48.4 77.8999 49.5V52.8C77.8999 53.9 76.9999 54.8 75.8999 54.8ZM91.3999 54.8H82.5999C81.4999 54.8 80.5999 53.9 80.5999 52.8V49.5C80.5999 48.4 81.4999 47.5 82.5999 47.5H91.3999C92.4999 47.5 93.3999 48.4 93.3999 49.5V52.8C93.3999 53.9 92.4999 54.8 91.3999 54.8ZM60.3999 64.4H51.5999C50.4999 64.4 49.5999 63.5 49.5999 62.4V59.1C49.5999 58 50.4999 57.1 51.5999 57.1H60.3999C61.4999 57.1 62.3999 58 62.3999 59.1V62.4C62.3999 63.5 61.4999 64.4 60.3999 64.4Z" fill="#D2D2D2"/>
</g>
<defs>
<clipPath id="clip0_104_1695">
<rect width="100" height="73.9" fill="white"/>
</clipPath>
</defs>
</svg>
