<svg width="116" height="116" viewBox="0 0 116 116" fill="none" xmlns="http://www.w3.org/2000/svg">
<path d="M58.5 17.25C35.73 17.25 17.25 35.73 17.25 58.5C17.25 81.27 35.73 99.75 58.5 99.75C81.27 99.75 99.75 81.27 99.75 58.5C99.75 35.73 81.27 17.25 58.5 17.25ZM69.4725 65.6362L64.1925 68.6888L58.9125 71.7412C52.1063 75.66 46.5375 72.4425 46.5375 64.605V58.5V52.395C46.5375 44.5163 52.1063 41.34 58.9125 45.2587L64.1925 48.3112L69.4725 51.3638C76.2787 55.2825 76.2787 61.7175 69.4725 65.6362Z" fill="#76B729"/>
<circle cx="58" cy="58" r="57" stroke="#76B729" stroke-width="2"/>
</svg>
